<?xml version="1.0" encoding="utf-8" standalone="no"?>
<!DOCTYPE svg PUBLIC "-//W3C//DTD SVG 1.1//EN"
  "http://www.w3.org/Graphics/SVG/1.1/DTD/svg11.dtd">
<svg xmlns:xlink="http://www.w3.org/1999/xlink" width="360pt" height="194.4pt" viewBox="0 0 360 194.4" xmlns="http://www.w3.org/2000/svg" version="1.1">
 <metadata>
  <rdf:RDF xmlns:dc="http://purl.org/dc/elements/1.1/" xmlns:cc="http://creativecommons.org/ns#" xmlns:rdf="http://www.w3.org/1999/02/22-rdf-syntax-ns#">
   <cc:Work>
    <dc:type rdf:resource="http://purl.org/dc/dcmitype/StillImage"/>
    <dc:date>2024-01-27T15:20:34.517164</dc:date>
    <dc:format>image/svg+xml</dc:format>
    <dc:creator>
     <cc:Agent>
      <dc:title>Matplotlib v3.5.3, https://matplotlib.org/</dc:title>
     </cc:Agent>
    </dc:creator>
   </cc:Work>
  </rdf:RDF>
 </metadata>
 <defs>
  <style type="text/css">*{stroke-linejoin: round; stroke-linecap: butt}</style>
 </defs>
 <g id="figure_1">
  <g id="patch_1">
   <path d="M 0 194.4 
L 360 194.4 
L 360 0 
L 0 0 
z
" style="fill: #ffffff"/>
  </g>
  <g id="axes_1">
   <g id="patch_2">
    <path d="M 52.49 79.023908 
L 195.119268 79.023908 
L 195.119268 16.852176 
L 52.49 16.852176 
z
" style="fill: #eaeaf2"/>
   </g>
   <g id="matplotlib.axis_1">
    <g id="xtick_1">
     <g id="line2d_1">
      <path d="M 52.49 79.023908 
L 52.49 16.852176 
" clip-path="url(#pbd3dc78b0e)" style="fill: none; stroke: #ffffff; stroke-linecap: round"/>
     </g>
    </g>
    <g id="xtick_2">
     <g id="line2d_2">
      <path d="M 89.061607 79.023908 
L 89.061607 16.852176 
" clip-path="url(#pbd3dc78b0e)" style="fill: none; stroke: #ffffff; stroke-linecap: round"/>
     </g>
    </g>
    <g id="xtick_3">
     <g id="line2d_3">
      <path d="M 125.633215 79.023908 
L 125.633215 16.852176 
" clip-path="url(#pbd3dc78b0e)" style="fill: none; stroke: #ffffff; stroke-linecap: round"/>
     </g>
    </g>
    <g id="xtick_4">
     <g id="line2d_4">
      <path d="M 162.204822 79.023908 
L 162.204822 16.852176 
" clip-path="url(#pbd3dc78b0e)" style="fill: none; stroke: #ffffff; stroke-linecap: round"/>
     </g>
    </g>
   </g>
   <g id="matplotlib.axis_2">
    <g id="ytick_1">
     <g id="line2d_5">
      <path d="M 52.49 75.366747 
L 195.119268 75.366747 
" clip-path="url(#pbd3dc78b0e)" style="fill: none; stroke: #ffffff; stroke-linecap: round"/>
     </g>
     <g id="line2d_6"/>
     <g id="text_1">
      <!-- 40 -->
      <g style="fill: #262626" transform="translate(32.765 79.165966)scale(0.1 -0.1)">
       <defs>
        <path id="DejaVuSans-34" d="M 2419 4116 
L 825 1625 
L 2419 1625 
L 2419 4116 
z
M 2253 4666 
L 3047 4666 
L 3047 1625 
L 3713 1625 
L 3713 1100 
L 3047 1100 
L 3047 0 
L 2419 0 
L 2419 1100 
L 313 1100 
L 313 1709 
L 2253 4666 
z
" transform="scale(0.015625)"/>
        <path id="DejaVuSans-30" d="M 2034 4250 
Q 1547 4250 1301 3770 
Q 1056 3291 1056 2328 
Q 1056 1369 1301 889 
Q 1547 409 2034 409 
Q 2525 409 2770 889 
Q 3016 1369 3016 2328 
Q 3016 3291 2770 3770 
Q 2525 4250 2034 4250 
z
M 2034 4750 
Q 2819 4750 3233 4129 
Q 3647 3509 3647 2328 
Q 3647 1150 3233 529 
Q 2819 -91 2034 -91 
Q 1250 -91 836 529 
Q 422 1150 422 2328 
Q 422 3509 836 4129 
Q 1250 4750 2034 4750 
z
" transform="scale(0.015625)"/>
       </defs>
       <use xlink:href="#DejaVuSans-34"/>
       <use xlink:href="#DejaVuSans-30" x="63.623047"/>
      </g>
     </g>
    </g>
    <g id="ytick_2">
     <g id="line2d_7">
      <path d="M 52.49 38.79514 
L 195.119268 38.79514 
" clip-path="url(#pbd3dc78b0e)" style="fill: none; stroke: #ffffff; stroke-linecap: round"/>
     </g>
     <g id="line2d_8"/>
     <g id="text_2">
      <!-- 60 -->
      <g style="fill: #262626" transform="translate(32.765 42.594359)scale(0.1 -0.1)">
       <defs>
        <path id="DejaVuSans-36" d="M 2113 2584 
Q 1688 2584 1439 2293 
Q 1191 2003 1191 1497 
Q 1191 994 1439 701 
Q 1688 409 2113 409 
Q 2538 409 2786 701 
Q 3034 994 3034 1497 
Q 3034 2003 2786 2293 
Q 2538 2584 2113 2584 
z
M 3366 4563 
L 3366 3988 
Q 3128 4100 2886 4159 
Q 2644 4219 2406 4219 
Q 1781 4219 1451 3797 
Q 1122 3375 1075 2522 
Q 1259 2794 1537 2939 
Q 1816 3084 2150 3084 
Q 2853 3084 3261 2657 
Q 3669 2231 3669 1497 
Q 3669 778 3244 343 
Q 2819 -91 2113 -91 
Q 1303 -91 875 529 
Q 447 1150 447 2328 
Q 447 3434 972 4092 
Q 1497 4750 2381 4750 
Q 2619 4750 2861 4703 
Q 3103 4656 3366 4563 
z
" transform="scale(0.015625)"/>
       </defs>
       <use xlink:href="#DejaVuSans-36"/>
       <use xlink:href="#DejaVuSans-30" x="63.623047"/>
      </g>
     </g>
    </g>
    <g id="text_3">
     <!-- $y$ (nm) -->
     <g style="fill: #262626" transform="translate(26.455 66.088042)rotate(-90)scale(0.11 -0.11)">
      <defs>
       <path id="DejaVuSans-Oblique-79" d="M 1588 -325 
Q 1188 -997 936 -1164 
Q 684 -1331 294 -1331 
L -159 -1331 
L -63 -850 
L 269 -850 
Q 509 -850 678 -719 
Q 847 -588 1056 -206 
L 1234 128 
L 459 3500 
L 1069 3500 
L 1650 819 
L 3256 3500 
L 3859 3500 
L 1588 -325 
z
" transform="scale(0.015625)"/>
       <path id="DejaVuSans-20" transform="scale(0.015625)"/>
       <path id="DejaVuSans-28" d="M 1984 4856 
Q 1566 4138 1362 3434 
Q 1159 2731 1159 2009 
Q 1159 1288 1364 580 
Q 1569 -128 1984 -844 
L 1484 -844 
Q 1016 -109 783 600 
Q 550 1309 550 2009 
Q 550 2706 781 3412 
Q 1013 4119 1484 4856 
L 1984 4856 
z
" transform="scale(0.015625)"/>
       <path id="DejaVuSans-6e" d="M 3513 2113 
L 3513 0 
L 2938 0 
L 2938 2094 
Q 2938 2591 2744 2837 
Q 2550 3084 2163 3084 
Q 1697 3084 1428 2787 
Q 1159 2491 1159 1978 
L 1159 0 
L 581 0 
L 581 3500 
L 1159 3500 
L 1159 2956 
Q 1366 3272 1645 3428 
Q 1925 3584 2291 3584 
Q 2894 3584 3203 3211 
Q 3513 2838 3513 2113 
z
" transform="scale(0.015625)"/>
       <path id="DejaVuSans-6d" d="M 3328 2828 
Q 3544 3216 3844 3400 
Q 4144 3584 4550 3584 
Q 5097 3584 5394 3201 
Q 5691 2819 5691 2113 
L 5691 0 
L 5113 0 
L 5113 2094 
Q 5113 2597 4934 2840 
Q 4756 3084 4391 3084 
Q 3944 3084 3684 2787 
Q 3425 2491 3425 1978 
L 3425 0 
L 2847 0 
L 2847 2094 
Q 2847 2600 2669 2842 
Q 2491 3084 2119 3084 
Q 1678 3084 1418 2786 
Q 1159 2488 1159 1978 
L 1159 0 
L 581 0 
L 581 3500 
L 1159 3500 
L 1159 2956 
Q 1356 3278 1631 3431 
Q 1906 3584 2284 3584 
Q 2666 3584 2933 3390 
Q 3200 3197 3328 2828 
z
" transform="scale(0.015625)"/>
       <path id="DejaVuSans-29" d="M 513 4856 
L 1013 4856 
Q 1481 4119 1714 3412 
Q 1947 2706 1947 2009 
Q 1947 1309 1714 600 
Q 1481 -109 1013 -844 
L 513 -844 
Q 928 -128 1133 580 
Q 1338 1288 1338 2009 
Q 1338 2731 1133 3434 
Q 928 4138 513 4856 
z
" transform="scale(0.015625)"/>
      </defs>
      <use xlink:href="#DejaVuSans-Oblique-79" transform="translate(0 0.125)"/>
      <use xlink:href="#DejaVuSans-20" transform="translate(59.179688 0.125)"/>
      <use xlink:href="#DejaVuSans-28" transform="translate(90.966797 0.125)"/>
      <use xlink:href="#DejaVuSans-6e" transform="translate(129.980469 0.125)"/>
      <use xlink:href="#DejaVuSans-6d" transform="translate(193.359375 0.125)"/>
      <use xlink:href="#DejaVuSans-29" transform="translate(290.771484 0.125)"/>
     </g>
    </g>
   </g>
   <g id="patch_3">
    <path d="M 125.633215 49.766622 
C 127.572995 49.766622 129.433589 48.995939 130.805221 47.624307 
C 132.176853 46.252675 132.947536 44.392082 132.947536 42.452301 
C 132.947536 40.51252 132.176853 38.651927 130.805221 37.280295 
C 129.433589 35.908662 127.572995 35.137979 125.633215 35.137979 
C 123.693434 35.137979 121.83284 35.908662 120.461208 37.280295 
C 119.089576 38.651927 118.318893 40.51252 118.318893 42.452301 
C 118.318893 44.392082 119.089576 46.252675 120.461208 47.624307 
C 121.83284 48.995939 123.693434 49.766622 125.633215 49.766622 
z
" clip-path="url(#pbd3dc78b0e)" style="opacity: 0.4; stroke: #000000; stroke-width: 0.3; stroke-linejoin: miter"/>
   </g>
   <g id="line2d_9">
    <path d="M -1 31.480725 
L 0.214467 31.48081 
L 1.867749 31.480923 
L 3.558094 31.481058 
L 5.277001 31.481223 
L 7.018287 31.481423 
L 8.77716 31.481668 
L 10.549862 31.481967 
L 12.333439 31.482334 
L 14.125567 31.482784 
L 15.924416 31.48334 
L 17.72855 31.484024 
L 19.536832 31.484869 
L 21.348368 31.485914 
L 23.162448 31.487206 
L 24.97851 31.488805 
L 26.796102 31.490786 
L 28.61486 31.493242 
L 30.434488 31.496288 
L 32.254735 31.500068 
L 34.075388 31.504761 
L 35.896256 31.51059 
L 37.71716 31.517832 
L 39.537924 31.526834 
L 41.358365 31.538026 
L 43.178282 31.551944 
L 44.997446 31.569256 
L 46.815588 31.590795 
L 48.632384 31.617592 
L 50.447439 31.650932 
L 52.260266 31.692411 
L 54.070264 31.744002 
L 55.876687 31.808152 
L 57.678615 31.887878 
L 59.474914 31.986892 
L 61.264198 32.109749 
L 63.044786 32.26201 
L 64.814671 32.450425 
L 66.571492 32.683139 
L 68.312543 32.969898 
L 70.034823 33.322253 
L 71.735169 33.753733 
L 73.410512 34.279952 
L 75.05829 34.918615 
L 76.677107 35.689347 
L 78.267663 36.613258 
L 79.834009 37.712151 
L 81.38509 39.007204 
L 82.936476 40.516973 
L 84.511983 42.254535 
L 86.144673 44.223646 
L 87.876492 46.414011 
L 89.755558 48.796183 
L 91.830283 51.317306 
L 94.140151 53.899777 
L 96.704521 56.445294 
L 99.512818 58.845974 
L 102.520784 61.001552 
L 105.656398 62.837963 
L 108.835115 64.320396 
L 111.979351 65.455639 
L 115.035212 66.283536 
L 117.981701 66.862011 
L 120.831792 67.251228 
L 123.627689 67.500519 
L 126.432964 67.638975 
L 129.322757 67.669096 
L 132.371472 67.563207 
L 135.636486 67.264228 
L 139.138169 66.694855 
L 142.841746 65.779423 
L 146.652946 64.476632 
L 150.438334 62.808984 
L 154.065964 60.868416 
L 157.444054 58.790916 
L 160.536603 56.71615 
L 163.354499 54.755603 
L 165.935565 52.98001 
L 168.326425 51.422352 
L 170.571309 50.087784 
L 172.7072 48.964151 
L 174.762908 48.030278 
L 176.759968 47.261569 
L 178.714116 46.633377 
L 180.636727 46.122811 
L 182.535997 45.709561 
L 184.417851 45.376125 
L 186.286598 45.107726 
L 188.145397 44.892063 
L 189.996588 44.719003 
L 191.841916 44.580263 
L 193.6827 44.469111 
L 195.519939 44.380101 
L 197.354398 44.308839 
L 199.186664 44.251794 
L 201.01719 44.206129 
L 202.846323 44.169571 
L 204.674333 44.140299 
L 206.501421 44.116855 
L 208.327742 44.098075 
L 210.153404 44.083027 
L 211.978484 44.070965 
L 213.803024 44.061295 
L 215.627039 44.053539 
L 217.450515 44.047316 
L 219.273411 44.042323 
L 221.095651 44.038315 
L 222.917127 44.035097 
L 224.737688 44.032513 
L 226.557132 44.030438 
L 228.375194 44.028771 
L 230.191534 44.027433 
L 232.005713 44.026358 
L 233.81717 44.025495 
" clip-path="url(#pbd3dc78b0e)" style="fill: none; stroke: #a52a2a; stroke-width: 1.75; stroke-linecap: round"/>
   </g>
   <g id="patch_4">
    <path d="M 52.49 79.023908 
L 52.49 16.852176 
" style="fill: none"/>
   </g>
   <g id="patch_5">
    <path d="M 195.119268 79.023908 
L 195.119268 16.852176 
" style="fill: none"/>
   </g>
   <g id="patch_6">
    <path d="M 52.49 79.023908 
L 195.119268 79.023908 
" style="fill: none"/>
   </g>
   <g id="patch_7">
    <path d="M 52.49 16.852176 
L 195.119268 16.852176 
" style="fill: none"/>
   </g>
   <g id="legend_1">
    <g id="line2d_10">
     <path d="M 139.960518 32.570301 
L 151.960518 32.570301 
L 163.960518 32.570301 
" style="fill: none; stroke: #a52a2a; stroke-width: 1.75; stroke-linecap: round"/>
    </g>
    <g id="text_4">
     <!-- ① -->
     <g style="fill: #262626" transform="translate(173.560518 36.770301)scale(0.12 -0.12)">
      <defs>
       <path id="DejaVuSans-2460" d="M 5263 2331 
Q 5263 1334 4561 635 
Q 3859 -63 2866 -63 
Q 1878 -63 1176 635 
Q 475 1334 475 2331 
Q 475 2950 797 3528 
Q 1119 4106 1695 4415 
Q 2272 4725 2866 4725 
Q 3469 4725 4045 4415 
Q 4622 4106 4942 3531 
Q 5263 2956 5263 2331 
z
M 734 2331 
Q 734 1444 1357 819 
Q 1981 194 2869 194 
Q 3756 194 4379 819 
Q 5003 1444 5003 2331 
Q 5003 2891 4718 3402 
Q 4434 3913 3921 4189 
Q 3409 4466 2869 4466 
Q 2328 4466 1815 4189 
Q 1303 3913 1018 3402 
Q 734 2891 734 2331 
z
M 1922 1288 
L 2600 1288 
L 2600 3281 
L 1863 3147 
L 1863 3622 
L 2666 3769 
L 3169 3769 
L 3169 1288 
L 3850 1288 
L 3850 844 
L 1922 844 
L 1922 1288 
z
" transform="scale(0.015625)"/>
      </defs>
      <use xlink:href="#DejaVuSans-2460"/>
     </g>
    </g>
   </g>
  </g>
  <g id="axes_2">
   <g id="patch_8">
    <path d="M 202.250732 79.023908 
L 344.88 79.023908 
L 344.88 16.852176 
L 202.250732 16.852176 
z
" style="fill: #eaeaf2"/>
   </g>
   <g id="matplotlib.axis_3">
    <g id="xtick_5">
     <g id="line2d_11">
      <path d="M 202.250732 79.023908 
L 202.250732 16.852176 
" clip-path="url(#p0dfe35f0f9)" style="fill: none; stroke: #ffffff; stroke-linecap: round"/>
     </g>
     <g id="line2d_12"/>
    </g>
    <g id="xtick_6">
     <g id="line2d_13">
      <path d="M 238.822339 79.023908 
L 238.822339 16.852176 
" clip-path="url(#p0dfe35f0f9)" style="fill: none; stroke: #ffffff; stroke-linecap: round"/>
     </g>
     <g id="line2d_14"/>
    </g>
    <g id="xtick_7">
     <g id="line2d_15">
      <path d="M 275.393946 79.023908 
L 275.393946 16.852176 
" clip-path="url(#p0dfe35f0f9)" style="fill: none; stroke: #ffffff; stroke-linecap: round"/>
     </g>
     <g id="line2d_16"/>
    </g>
    <g id="xtick_8">
     <g id="line2d_17">
      <path d="M 311.965553 79.023908 
L 311.965553 16.852176 
" clip-path="url(#p0dfe35f0f9)" style="fill: none; stroke: #ffffff; stroke-linecap: round"/>
     </g>
     <g id="line2d_18"/>
    </g>
   </g>
   <g id="matplotlib.axis_4">
    <g id="ytick_3">
     <g id="line2d_19">
      <path d="M 202.250732 75.366747 
L 344.88 75.366747 
" clip-path="url(#p0dfe35f0f9)" style="fill: none; stroke: #ffffff; stroke-linecap: round"/>
     </g>
     <g id="line2d_20"/>
    </g>
    <g id="ytick_4">
     <g id="line2d_21">
      <path d="M 202.250732 38.79514 
L 344.88 38.79514 
" clip-path="url(#p0dfe35f0f9)" style="fill: none; stroke: #ffffff; stroke-linecap: round"/>
     </g>
     <g id="line2d_22"/>
    </g>
   </g>
   <g id="patch_9">
    <path d="M 275.393946 49.766622 
C 277.333727 49.766622 279.19432 48.995939 280.565953 47.624307 
C 281.937585 46.252675 282.708268 44.392082 282.708268 42.452301 
C 282.708268 40.51252 281.937585 38.651927 280.565953 37.280295 
C 279.19432 35.908662 277.333727 35.137979 275.393946 35.137979 
C 273.454165 35.137979 271.593572 35.908662 270.22194 37.280295 
C 268.850308 38.651927 268.079625 40.51252 268.079625 42.452301 
C 268.079625 44.392082 268.850308 46.252675 270.22194 47.624307 
C 271.593572 48.995939 273.454165 49.766622 275.393946 49.766622 
z
" clip-path="url(#p0dfe35f0f9)" style="opacity: 0.4; stroke: #000000; stroke-width: 0.3; stroke-linejoin: miter"/>
   </g>
   <g id="line2d_23">
    <path d="M 148.371135 31.480698 
L 196.580213 31.575104 
L 205.649603 31.761432 
L 211.048912 32.02005 
L 216.37853 32.51193 
L 219.865788 33.06045 
L 223.27445 33.882785 
L 224.941914 34.431391 
L 226.581756 35.093633 
L 228.193301 35.887744 
L 229.778264 36.832597 
L 231.341971 37.946617 
L 232.894747 39.246138 
L 234.453283 40.743048 
L 237.691036 44.334572 
L 241.32179 48.589849 
L 243.372946 50.84239 
L 245.607825 53.068867 
L 248.016554 55.168182 
L 250.557107 57.038641 
L 253.156318 58.594449 
L 255.719643 59.780031 
L 258.146983 60.576571 
L 260.34882 60.998508 
L 262.257338 61.082288 
L 263.830497 60.872296 
L 265.050567 60.408405 
L 265.920422 59.717397 
L 266.460778 58.808602 
L 266.710504 57.673397 
L 266.730806 56.288718 
L 266.483111 52.666735 
L 266.507524 50.428394 
L 266.872659 47.992936 
L 267.748911 45.530396 
L 269.231439 43.29529 
L 271.283395 41.580209 
L 273.716638 40.632029 
L 276.234261 40.567261 
L 278.521508 41.334 
L 280.337668 42.740962 
L 281.564314 44.530946 
L 282.19959 46.45559 
L 282.319401 48.321474 
L 282.033149 50.00294 
L 281.450893 51.43289 
L 280.665861 52.585102 
L 279.749091 53.456981 
L 278.751276 54.056466 
L 277.707962 54.393597 
L 276.645858 54.475987 
L 275.589195 54.307341 
L 274.565671 53.888487 
L 273.611532 53.220806 
L 272.774995 52.312115 
L 272.116567 51.184749 
L 271.704425 49.884619 
L 271.603403 48.488395 
L 271.858039 47.104485 
L 272.473637 45.863511 
L 273.402747 44.897059 
L 274.545012 44.3094 
L 275.76381 44.152262 
L 276.914958 44.413287 
L 277.876468 45.022682 
L 278.568448 45.873936 
L 278.958405 46.848984 
L 279.054309 47.838928 
L 278.891627 48.755959 
L 278.5202 49.536851 
L 277.994385 50.140896 
L 277.367367 50.545481 
L 276.688948 50.741671 
L 276.00552 50.731065 
L 275.360873 50.524355 
L 274.796693 50.141384 
L 274.351862 49.612112 
L 274.060077 48.977526 
L 273.945844 48.289351 
L 274.019608 47.607464 
L 274.273499 46.994471 
L 274.679514 46.507888 
L 275.191549 46.191562 
L 275.751504 46.068699 
L 276.298167 46.138647 
L 276.776484 46.378375 
L 277.144785 46.747954 
L 277.378505 47.19817 
L 277.470295 47.678118 
L 277.42747 48.141197 
L 277.268194 48.548885 
L 277.017561 48.872437 
L 276.358429 49.201676 
L 275.684729 49.087799 
L 275.203226 48.61581 
L 275.050952 47.968954 
L 275.252873 47.380077 
L 275.704573 47.050783 
L 276.213426 47.068544 
L 276.587955 47.377399 
L 276.718088 47.82242 
L 276.686802 48.040387 
L 276.686802 48.040387 
" clip-path="url(#p0dfe35f0f9)" style="fill: none; stroke: #a52a2a; stroke-width: 1.75; stroke-linecap: round"/>
   </g>
   <g id="patch_10">
    <path d="M 202.250732 79.023908 
L 202.250732 16.852176 
" style="fill: none"/>
   </g>
   <g id="patch_11">
    <path d="M 344.88 79.023908 
L 344.88 16.852176 
" style="fill: none"/>
   </g>
   <g id="patch_12">
    <path d="M 202.250732 79.023908 
L 344.88 79.023908 
" style="fill: none"/>
   </g>
   <g id="patch_13">
    <path d="M 202.250732 16.852176 
L 344.88 16.852176 
" style="fill: none"/>
   </g>
   <g id="legend_2">
    <g id="line2d_24">
     <path d="M 289.72125 32.570301 
L 301.72125 32.570301 
L 313.72125 32.570301 
" style="fill: none; stroke: #a52a2a; stroke-width: 1.75; stroke-linecap: round"/>
    </g>
    <g id="text_5">
     <!-- ② -->
     <g style="fill: #262626" transform="translate(323.32125 36.770301)scale(0.12 -0.12)">
      <defs>
       <path id="DejaVuSans-2461" d="M 5263 2331 
Q 5263 1334 4561 635 
Q 3859 -63 2866 -63 
Q 1878 -63 1176 635 
Q 475 1334 475 2331 
Q 475 2950 797 3528 
Q 1119 4106 1695 4415 
Q 2272 4725 2866 4725 
Q 3469 4725 4045 4415 
Q 4622 4106 4942 3531 
Q 5263 2956 5263 2331 
z
M 734 2331 
Q 734 1444 1357 819 
Q 1981 194 2869 194 
Q 3756 194 4379 819 
Q 5003 1444 5003 2331 
Q 5003 2891 4718 3402 
Q 4434 3913 3921 4189 
Q 3409 4466 2869 4466 
Q 2328 4466 1815 4189 
Q 1303 3913 1018 3402 
Q 734 2891 734 2331 
z
M 2581 1288 
L 3944 1288 
L 3944 844 
L 1831 844 
L 1831 1247 
Q 2088 1488 2497 1864 
Q 2906 2241 3009 2347 
Q 3203 2544 3276 2676 
Q 3350 2809 3350 2934 
Q 3350 3131 3201 3253 
Q 3053 3375 2809 3375 
Q 2625 3375 2419 3315 
Q 2213 3256 1853 3075 
L 1853 3609 
Q 2156 3722 2382 3770 
Q 2609 3819 2800 3819 
Q 3309 3819 3617 3583 
Q 3925 3347 3925 2956 
Q 3925 2775 3850 2611 
Q 3775 2447 3581 2228 
Q 3528 2172 3250 1911 
Q 2972 1650 2581 1288 
z
" transform="scale(0.015625)"/>
      </defs>
      <use xlink:href="#DejaVuSans-2461"/>
     </g>
    </g>
   </g>
  </g>
  <g id="axes_3">
   <g id="patch_14">
    <path d="M 52.49 149.887964 
L 195.119268 149.887964 
L 195.119268 87.716232 
L 52.49 87.716232 
z
" style="fill: #eaeaf2"/>
   </g>
   <g id="matplotlib.axis_5">
    <g id="xtick_9">
     <g id="line2d_25">
      <path d="M 52.49 149.887964 
L 52.49 87.716232 
" clip-path="url(#pefd485f276)" style="fill: none; stroke: #ffffff; stroke-linecap: round"/>
     </g>
     <g id="line2d_26"/>
     <g id="text_6">
      <!-- 60 -->
      <g style="fill: #262626" transform="translate(46.1275 164.486402)scale(0.1 -0.1)">
       <use xlink:href="#DejaVuSans-36"/>
       <use xlink:href="#DejaVuSans-30" x="63.623047"/>
      </g>
     </g>
    </g>
    <g id="xtick_10">
     <g id="line2d_27">
      <path d="M 89.061607 149.887964 
L 89.061607 87.716232 
" clip-path="url(#pefd485f276)" style="fill: none; stroke: #ffffff; stroke-linecap: round"/>
     </g>
     <g id="line2d_28"/>
     <g id="text_7">
      <!-- 80 -->
      <g style="fill: #262626" transform="translate(82.699107 164.486402)scale(0.1 -0.1)">
       <defs>
        <path id="DejaVuSans-38" d="M 2034 2216 
Q 1584 2216 1326 1975 
Q 1069 1734 1069 1313 
Q 1069 891 1326 650 
Q 1584 409 2034 409 
Q 2484 409 2743 651 
Q 3003 894 3003 1313 
Q 3003 1734 2745 1975 
Q 2488 2216 2034 2216 
z
M 1403 2484 
Q 997 2584 770 2862 
Q 544 3141 544 3541 
Q 544 4100 942 4425 
Q 1341 4750 2034 4750 
Q 2731 4750 3128 4425 
Q 3525 4100 3525 3541 
Q 3525 3141 3298 2862 
Q 3072 2584 2669 2484 
Q 3125 2378 3379 2068 
Q 3634 1759 3634 1313 
Q 3634 634 3220 271 
Q 2806 -91 2034 -91 
Q 1263 -91 848 271 
Q 434 634 434 1313 
Q 434 1759 690 2068 
Q 947 2378 1403 2484 
z
M 1172 3481 
Q 1172 3119 1398 2916 
Q 1625 2713 2034 2713 
Q 2441 2713 2670 2916 
Q 2900 3119 2900 3481 
Q 2900 3844 2670 4047 
Q 2441 4250 2034 4250 
Q 1625 4250 1398 4047 
Q 1172 3844 1172 3481 
z
" transform="scale(0.015625)"/>
       </defs>
       <use xlink:href="#DejaVuSans-38"/>
       <use xlink:href="#DejaVuSans-30" x="63.623047"/>
      </g>
     </g>
    </g>
    <g id="xtick_11">
     <g id="line2d_29">
      <path d="M 125.633215 149.887964 
L 125.633215 87.716232 
" clip-path="url(#pefd485f276)" style="fill: none; stroke: #ffffff; stroke-linecap: round"/>
     </g>
     <g id="line2d_30"/>
     <g id="text_8">
      <!-- 100 -->
      <g style="fill: #262626" transform="translate(116.089465 164.486402)scale(0.1 -0.1)">
       <defs>
        <path id="DejaVuSans-31" d="M 794 531 
L 1825 531 
L 1825 4091 
L 703 3866 
L 703 4441 
L 1819 4666 
L 2450 4666 
L 2450 531 
L 3481 531 
L 3481 0 
L 794 0 
L 794 531 
z
" transform="scale(0.015625)"/>
       </defs>
       <use xlink:href="#DejaVuSans-31"/>
       <use xlink:href="#DejaVuSans-30" x="63.623047"/>
       <use xlink:href="#DejaVuSans-30" x="127.246094"/>
      </g>
     </g>
    </g>
    <g id="xtick_12">
     <g id="line2d_31">
      <path d="M 162.204822 149.887964 
L 162.204822 87.716232 
" clip-path="url(#pefd485f276)" style="fill: none; stroke: #ffffff; stroke-linecap: round"/>
     </g>
     <g id="line2d_32"/>
     <g id="text_9">
      <!-- 120 -->
      <g style="fill: #262626" transform="translate(152.661072 164.486402)scale(0.1 -0.1)">
       <defs>
        <path id="DejaVuSans-32" d="M 1228 531 
L 3431 531 
L 3431 0 
L 469 0 
L 469 531 
Q 828 903 1448 1529 
Q 2069 2156 2228 2338 
Q 2531 2678 2651 2914 
Q 2772 3150 2772 3378 
Q 2772 3750 2511 3984 
Q 2250 4219 1831 4219 
Q 1534 4219 1204 4116 
Q 875 4013 500 3803 
L 500 4441 
Q 881 4594 1212 4672 
Q 1544 4750 1819 4750 
Q 2544 4750 2975 4387 
Q 3406 4025 3406 3419 
Q 3406 3131 3298 2873 
Q 3191 2616 2906 2266 
Q 2828 2175 2409 1742 
Q 1991 1309 1228 531 
z
" transform="scale(0.015625)"/>
       </defs>
       <use xlink:href="#DejaVuSans-31"/>
       <use xlink:href="#DejaVuSans-32" x="63.623047"/>
       <use xlink:href="#DejaVuSans-30" x="127.246094"/>
      </g>
     </g>
    </g>
    <g id="text_10">
     <!-- $x$ (nm) -->
     <g style="fill: #262626" transform="translate(105.654634 178.92437)scale(0.11 -0.11)">
      <defs>
       <path id="DejaVuSans-Oblique-78" d="M 3841 3500 
L 2234 1784 
L 3219 0 
L 2559 0 
L 1819 1388 
L 531 0 
L -166 0 
L 1556 1844 
L 641 3500 
L 1300 3500 
L 1972 2234 
L 3144 3500 
L 3841 3500 
z
" transform="scale(0.015625)"/>
      </defs>
      <use xlink:href="#DejaVuSans-Oblique-78" transform="translate(0 0.125)"/>
      <use xlink:href="#DejaVuSans-20" transform="translate(59.179688 0.125)"/>
      <use xlink:href="#DejaVuSans-28" transform="translate(90.966797 0.125)"/>
      <use xlink:href="#DejaVuSans-6e" transform="translate(129.980469 0.125)"/>
      <use xlink:href="#DejaVuSans-6d" transform="translate(193.359375 0.125)"/>
      <use xlink:href="#DejaVuSans-29" transform="translate(290.771484 0.125)"/>
     </g>
    </g>
   </g>
   <g id="matplotlib.axis_6">
    <g id="ytick_5">
     <g id="line2d_33">
      <path d="M 52.49 146.230803 
L 195.119268 146.230803 
" clip-path="url(#pefd485f276)" style="fill: none; stroke: #ffffff; stroke-linecap: round"/>
     </g>
     <g id="line2d_34"/>
     <g id="text_11">
      <!-- 40 -->
      <g style="fill: #262626" transform="translate(32.765 150.030022)scale(0.1 -0.1)">
       <use xlink:href="#DejaVuSans-34"/>
       <use xlink:href="#DejaVuSans-30" x="63.623047"/>
      </g>
     </g>
    </g>
    <g id="ytick_6">
     <g id="line2d_35">
      <path d="M 52.49 109.659196 
L 195.119268 109.659196 
" clip-path="url(#pefd485f276)" style="fill: none; stroke: #ffffff; stroke-linecap: round"/>
     </g>
     <g id="line2d_36"/>
     <g id="text_12">
      <!-- 60 -->
      <g style="fill: #262626" transform="translate(32.765 113.458415)scale(0.1 -0.1)">
       <use xlink:href="#DejaVuSans-36"/>
       <use xlink:href="#DejaVuSans-30" x="63.623047"/>
      </g>
     </g>
    </g>
    <g id="text_13">
     <!-- $y$ (nm) -->
     <g style="fill: #262626" transform="translate(26.455 136.952098)rotate(-90)scale(0.11 -0.11)">
      <use xlink:href="#DejaVuSans-Oblique-79" transform="translate(0 0.125)"/>
      <use xlink:href="#DejaVuSans-20" transform="translate(59.179688 0.125)"/>
      <use xlink:href="#DejaVuSans-28" transform="translate(90.966797 0.125)"/>
      <use xlink:href="#DejaVuSans-6e" transform="translate(129.980469 0.125)"/>
      <use xlink:href="#DejaVuSans-6d" transform="translate(193.359375 0.125)"/>
      <use xlink:href="#DejaVuSans-29" transform="translate(290.771484 0.125)"/>
     </g>
    </g>
   </g>
   <g id="patch_15">
    <path d="M 125.633215 120.630678 
C 127.572995 120.630678 129.433589 119.859995 130.805221 118.488363 
C 132.176853 117.116731 132.947536 115.256138 132.947536 113.316357 
C 132.947536 111.376576 132.176853 109.515983 130.805221 108.144351 
C 129.433589 106.772718 127.572995 106.002035 125.633215 106.002035 
C 123.693434 106.002035 121.83284 106.772718 120.461208 108.144351 
C 119.089576 109.515983 118.318893 111.376576 118.318893 113.316357 
C 118.318893 115.256138 119.089576 117.116731 120.461208 118.488363 
C 121.83284 119.859995 123.693434 120.630678 125.633215 120.630678 
z
" clip-path="url(#pefd485f276)" style="opacity: 0.4; stroke: #000000; stroke-width: 0.3; stroke-linejoin: miter"/>
   </g>
   <g id="line2d_37">
    <path d="M -1 102.34477 
L 54.109225 102.457712 
L 63.166014 102.679971 
L 68.546799 102.984387 
L 72.090626 103.322142 
L 75.581119 103.824987 
L 78.999141 104.557641 
L 82.328243 105.59364 
L 85.566122 106.999673 
L 88.741645 108.802541 
L 96.946584 114.148089 
L 98.710472 114.9794 
L 100.509631 115.56052 
L 102.32816 115.81991 
L 104.152965 115.708543 
L 105.984257 115.212002 
L 107.843361 114.357516 
L 111.826704 111.888935 
L 114.054668 110.513693 
L 116.483662 109.234077 
L 119.104909 108.190592 
L 121.8698 107.499858 
L 124.696904 107.23766 
L 127.488242 107.428664 
L 130.149785 108.04598 
L 132.6098 109.020364 
L 134.830215 110.25552 
L 136.809379 111.644429 
L 143.212049 116.811348 
L 144.758575 117.626716 
L 146.399129 118.139049 
L 148.160417 118.314239 
L 150.04218 118.140243 
L 152.019128 117.635682 
L 154.050506 116.852807 
L 158.117592 114.776211 
L 163.957479 111.558009 
L 167.694408 109.860106 
L 171.372946 108.601927 
L 175.029042 107.718709 
L 178.678666 107.119442 
L 182.327314 106.721617 
L 187.800904 106.367543 
L 195.099536 106.144232 
L 207.869627 106.020343 
L 235.16259 105.988019 
L 235.16259 105.988019 
" clip-path="url(#pefd485f276)" style="fill: none; stroke: #a52a2a; stroke-width: 1.75; stroke-linecap: round"/>
   </g>
   <g id="patch_16">
    <path d="M 52.49 149.887964 
L 52.49 87.716232 
" style="fill: none"/>
   </g>
   <g id="patch_17">
    <path d="M 195.119268 149.887964 
L 195.119268 87.716232 
" style="fill: none"/>
   </g>
   <g id="patch_18">
    <path d="M 52.49 149.887964 
L 195.119268 149.887964 
" style="fill: none"/>
   </g>
   <g id="patch_19">
    <path d="M 52.49 87.716232 
L 195.119268 87.716232 
" style="fill: none"/>
   </g>
   <g id="legend_3">
    <g id="line2d_38">
     <path d="M 63.29 132.392339 
L 75.29 132.392339 
L 87.29 132.392339 
" style="fill: none; stroke: #a52a2a; stroke-width: 1.75; stroke-linecap: round"/>
    </g>
    <g id="text_14">
     <!-- ③ -->
     <g style="fill: #262626" transform="translate(96.89 136.592339)scale(0.12 -0.12)">
      <defs>
       <path id="DejaVuSans-2462" d="M 5263 2331 
Q 5263 1334 4561 635 
Q 3859 -63 2866 -63 
Q 1878 -63 1176 635 
Q 475 1334 475 2331 
Q 475 2950 797 3528 
Q 1119 4106 1695 4415 
Q 2272 4725 2866 4725 
Q 3469 4725 4045 4415 
Q 4622 4106 4942 3531 
Q 5263 2956 5263 2331 
z
M 734 2331 
Q 734 1444 1357 819 
Q 1981 194 2869 194 
Q 3756 194 4379 819 
Q 5003 1444 5003 2331 
Q 5003 2891 4718 3402 
Q 4434 3913 3921 4189 
Q 3409 4466 2869 4466 
Q 2328 4466 1815 4189 
Q 1303 3913 1018 3402 
Q 734 2891 734 2331 
z
M 3713 2422 
Q 3753 2413 3937 2211 
Q 4122 2009 4122 1719 
Q 4122 1278 3784 1034 
Q 3447 791 2838 791 
Q 2638 791 2425 827 
Q 2213 863 1938 947 
L 1938 1472 
Q 2222 1322 2417 1278 
Q 2613 1234 2825 1234 
Q 3191 1234 3370 1357 
Q 3550 1481 3550 1719 
Q 3550 1941 3383 2062 
Q 3216 2184 2906 2184 
L 2469 2184 
L 2469 2622 
L 2922 2622 
Q 3203 2622 3340 2715 
Q 3478 2809 3478 2991 
Q 3478 3178 3334 3276 
Q 3191 3375 2906 3375 
Q 2744 3375 2555 3342 
Q 2366 3309 2031 3209 
L 2031 3681 
Q 2328 3756 2540 3787 
Q 2753 3819 2944 3819 
Q 3447 3819 3748 3605 
Q 4050 3391 4050 3031 
Q 4050 2778 3887 2600 
Q 3725 2422 3713 2422 
z
" transform="scale(0.015625)"/>
      </defs>
      <use xlink:href="#DejaVuSans-2462"/>
     </g>
    </g>
   </g>
  </g>
  <g id="axes_4">
   <g id="patch_20">
    <path d="M 202.250732 149.887964 
L 344.88 149.887964 
L 344.88 87.716232 
L 202.250732 87.716232 
z
" style="fill: #eaeaf2"/>
   </g>
   <g id="matplotlib.axis_7">
    <g id="xtick_13">
     <g id="line2d_39">
      <path d="M 202.250732 149.887964 
L 202.250732 87.716232 
" clip-path="url(#p45ab8cae4a)" style="fill: none; stroke: #ffffff; stroke-linecap: round"/>
     </g>
     <g id="line2d_40"/>
     <g id="text_15">
      <!-- 60 -->
      <g style="fill: #262626" transform="translate(195.888232 164.486402)scale(0.1 -0.1)">
       <use xlink:href="#DejaVuSans-36"/>
       <use xlink:href="#DejaVuSans-30" x="63.623047"/>
      </g>
     </g>
    </g>
    <g id="xtick_14">
     <g id="line2d_41">
      <path d="M 238.822339 149.887964 
L 238.822339 87.716232 
" clip-path="url(#p45ab8cae4a)" style="fill: none; stroke: #ffffff; stroke-linecap: round"/>
     </g>
     <g id="line2d_42"/>
     <g id="text_16">
      <!-- 80 -->
      <g style="fill: #262626" transform="translate(232.459839 164.486402)scale(0.1 -0.1)">
       <use xlink:href="#DejaVuSans-38"/>
       <use xlink:href="#DejaVuSans-30" x="63.623047"/>
      </g>
     </g>
    </g>
    <g id="xtick_15">
     <g id="line2d_43">
      <path d="M 275.393946 149.887964 
L 275.393946 87.716232 
" clip-path="url(#p45ab8cae4a)" style="fill: none; stroke: #ffffff; stroke-linecap: round"/>
     </g>
     <g id="line2d_44"/>
     <g id="text_17">
      <!-- 100 -->
      <g style="fill: #262626" transform="translate(265.850196 164.486402)scale(0.1 -0.1)">
       <use xlink:href="#DejaVuSans-31"/>
       <use xlink:href="#DejaVuSans-30" x="63.623047"/>
       <use xlink:href="#DejaVuSans-30" x="127.246094"/>
      </g>
     </g>
    </g>
    <g id="xtick_16">
     <g id="line2d_45">
      <path d="M 311.965553 149.887964 
L 311.965553 87.716232 
" clip-path="url(#p45ab8cae4a)" style="fill: none; stroke: #ffffff; stroke-linecap: round"/>
     </g>
     <g id="line2d_46"/>
     <g id="text_18">
      <!-- 120 -->
      <g style="fill: #262626" transform="translate(302.421803 164.486402)scale(0.1 -0.1)">
       <use xlink:href="#DejaVuSans-31"/>
       <use xlink:href="#DejaVuSans-32" x="63.623047"/>
       <use xlink:href="#DejaVuSans-30" x="127.246094"/>
      </g>
     </g>
    </g>
    <g id="text_19">
     <!-- $x$ (nm) -->
     <g style="fill: #262626" transform="translate(255.415366 178.92437)scale(0.11 -0.11)">
      <use xlink:href="#DejaVuSans-Oblique-78" transform="translate(0 0.125)"/>
      <use xlink:href="#DejaVuSans-20" transform="translate(59.179688 0.125)"/>
      <use xlink:href="#DejaVuSans-28" transform="translate(90.966797 0.125)"/>
      <use xlink:href="#DejaVuSans-6e" transform="translate(129.980469 0.125)"/>
      <use xlink:href="#DejaVuSans-6d" transform="translate(193.359375 0.125)"/>
      <use xlink:href="#DejaVuSans-29" transform="translate(290.771484 0.125)"/>
     </g>
    </g>
   </g>
   <g id="matplotlib.axis_8">
    <g id="ytick_7">
     <g id="line2d_47">
      <path d="M 202.250732 146.230803 
L 344.88 146.230803 
" clip-path="url(#p45ab8cae4a)" style="fill: none; stroke: #ffffff; stroke-linecap: round"/>
     </g>
     <g id="line2d_48"/>
    </g>
    <g id="ytick_8">
     <g id="line2d_49">
      <path d="M 202.250732 109.659196 
L 344.88 109.659196 
" clip-path="url(#p45ab8cae4a)" style="fill: none; stroke: #ffffff; stroke-linecap: round"/>
     </g>
     <g id="line2d_50"/>
    </g>
   </g>
   <g id="patch_21">
    <path d="M 275.393946 142.573643 
C 277.333727 142.573643 279.19432 141.80296 280.565953 140.431327 
C 281.937585 139.059695 282.708268 137.199102 282.708268 135.259321 
C 282.708268 133.31954 281.937585 131.458947 280.565953 130.087315 
C 279.19432 128.715683 277.333727 127.945 275.393946 127.945 
C 273.454165 127.945 271.593572 128.715683 270.22194 130.087315 
C 268.850308 131.458947 268.079625 133.31954 268.079625 135.259321 
C 268.079625 137.199102 268.850308 139.059695 270.22194 140.431327 
C 271.593572 141.80296 273.454165 142.573643 275.393946 142.573643 
z
" clip-path="url(#p45ab8cae4a)" style="opacity: 0.4; stroke: #000000; stroke-width: 0.3; stroke-linejoin: miter"/>
   </g>
   <g id="line2d_51">
    <path d="M 148.371135 98.687593 
L 212.947045 98.795644 
L 223.710839 99.013307 
L 230.696592 99.337022 
L 235.734496 99.740014 
L 240.497155 100.330114 
L 244.876741 101.141505 
L 247.534972 101.811231 
L 249.961688 102.57843 
L 253.164105 103.882205 
L 255.903305 105.304076 
L 261.520285 108.452618 
L 263.278096 109.122416 
L 265.249866 109.623702 
L 267.482962 109.948249 
L 269.979753 110.114412 
L 274.087643 110.141249 
L 278.281711 109.948039 
L 280.909135 109.652349 
L 283.295811 109.160227 
L 285.418998 108.434975 
L 287.31942 107.482837 
L 289.950468 105.744027 
L 293.600992 103.232989 
L 295.674421 102.040075 
L 297.973156 100.946816 
L 300.508087 99.977778 
L 303.269447 99.144943 
L 306.233638 98.449814 
L 309.369678 97.885576 
L 314.324169 97.255698 
L 319.490107 96.835379 
L 326.57429 96.503069 
L 337.399996 96.281751 
L 355.600345 96.188081 
L 361 96.181118 
L 361 96.181118 
" clip-path="url(#p45ab8cae4a)" style="fill: none; stroke: #a52a2a; stroke-width: 1.75; stroke-linecap: round"/>
   </g>
   <g id="patch_22">
    <path d="M 202.250732 149.887964 
L 202.250732 87.716232 
" style="fill: none"/>
   </g>
   <g id="patch_23">
    <path d="M 344.88 149.887964 
L 344.88 87.716232 
" style="fill: none"/>
   </g>
   <g id="patch_24">
    <path d="M 202.250732 149.887964 
L 344.88 149.887964 
" style="fill: none"/>
   </g>
   <g id="patch_25">
    <path d="M 202.250732 87.716232 
L 344.88 87.716232 
" style="fill: none"/>
   </g>
   <g id="legend_4">
    <g id="line2d_52">
     <path d="M 213.050732 132.392339 
L 225.050732 132.392339 
L 237.050732 132.392339 
" style="fill: none; stroke: #a52a2a; stroke-width: 1.75; stroke-linecap: round"/>
    </g>
    <g id="text_20">
     <!-- ④ -->
     <g style="fill: #262626" transform="translate(246.650732 136.592339)scale(0.12 -0.12)">
      <defs>
       <path id="DejaVuSans-2463" d="M 5263 2331 
Q 5263 1334 4561 635 
Q 3859 -63 2866 -63 
Q 1878 -63 1176 635 
Q 475 1334 475 2331 
Q 475 2950 797 3528 
Q 1119 4106 1695 4415 
Q 2272 4725 2866 4725 
Q 3469 4725 4045 4415 
Q 4622 4106 4942 3531 
Q 5263 2956 5263 2331 
z
M 734 2331 
Q 734 1444 1357 819 
Q 1981 194 2869 194 
Q 3756 194 4379 819 
Q 5003 1444 5003 2331 
Q 5003 2891 4718 3402 
Q 4434 3913 3921 4189 
Q 3409 4466 2869 4466 
Q 2328 4466 1815 4189 
Q 1303 3913 1018 3402 
Q 734 2891 734 2331 
z
M 2931 3138 
L 2091 1944 
L 2931 1944 
L 2931 3138 
z
M 2856 3769 
L 3500 3769 
L 3500 1944 
L 3941 1944 
L 3941 1503 
L 3500 1503 
L 3500 844 
L 2931 844 
L 2931 1503 
L 1541 1503 
L 1541 1947 
L 2856 3769 
z
" transform="scale(0.015625)"/>
      </defs>
      <use xlink:href="#DejaVuSans-2463"/>
     </g>
    </g>
   </g>
  </g>
 </g>
 <defs>
  <clipPath id="pbd3dc78b0e">
   <rect x="52.49" y="16.852176" width="142.629268" height="62.171732"/>
  </clipPath>
  <clipPath id="p0dfe35f0f9">
   <rect x="202.250732" y="16.852176" width="142.629268" height="62.171732"/>
  </clipPath>
  <clipPath id="pefd485f276">
   <rect x="52.49" y="87.716232" width="142.629268" height="62.171732"/>
  </clipPath>
  <clipPath id="p45ab8cae4a">
   <rect x="202.250732" y="87.716232" width="142.629268" height="62.171732"/>
  </clipPath>
 </defs>
</svg>
