<?xml version="1.0" encoding="utf-8" standalone="no"?>
<!DOCTYPE svg PUBLIC "-//W3C//DTD SVG 1.1//EN"
  "http://www.w3.org/Graphics/SVG/1.1/DTD/svg11.dtd">
<svg xmlns:xlink="http://www.w3.org/1999/xlink" width="288pt" height="216pt" viewBox="0 0 288 216" xmlns="http://www.w3.org/2000/svg" version="1.1">
 <metadata>
  <rdf:RDF xmlns:dc="http://purl.org/dc/elements/1.1/" xmlns:cc="http://creativecommons.org/ns#" xmlns:rdf="http://www.w3.org/1999/02/22-rdf-syntax-ns#">
   <cc:Work>
    <dc:type rdf:resource="http://purl.org/dc/dcmitype/StillImage"/>
    <dc:date>2023-12-17T18:20:01.802802</dc:date>
    <dc:format>image/svg+xml</dc:format>
    <dc:creator>
     <cc:Agent>
      <dc:title>Matplotlib v3.5.3, https://matplotlib.org/</dc:title>
     </cc:Agent>
    </dc:creator>
   </cc:Work>
  </rdf:RDF>
 </metadata>
 <defs>
  <style type="text/css">*{stroke-linejoin: round; stroke-linecap: butt}</style>
 </defs>
 <g id="figure_1">
  <g id="patch_1">
   <path d="M 0 216 
L 288 216 
L 288 0 
L 0 0 
z
" style="fill: #ffffff"/>
  </g>
  <g id="axes_1">
   <g id="patch_2">
    <path d="M 66.35 163.96 
L 272.88 163.96 
L 272.88 15.12 
L 66.35 15.12 
z
" style="fill: #ffffff"/>
   </g>
   <g id="matplotlib.axis_1">
    <g id="xtick_1">
     <g id="line2d_1">
      <defs>
       <path id="m84474accab" d="M 0 0 
L 0 3.5 
" style="stroke: #000000; stroke-width: 0.8"/>
      </defs>
      <g>
       <use xlink:href="#m84474accab" x="75.737727" y="163.96" style="stroke: #000000; stroke-width: 0.8"/>
      </g>
     </g>
     <g id="text_1">
      <!-- 0 -->
      <g transform="translate(71.845071 180.980937)scale(0.14 -0.14)">
       <defs>
        <path id="ArialMT-30" d="M 266 2259 
Q 266 3072 433 3567 
Q 600 4063 929 4331 
Q 1259 4600 1759 4600 
Q 2128 4600 2406 4451 
Q 2684 4303 2865 4023 
Q 3047 3744 3150 3342 
Q 3253 2941 3253 2259 
Q 3253 1453 3087 958 
Q 2922 463 2592 192 
Q 2263 -78 1759 -78 
Q 1097 -78 719 397 
Q 266 969 266 2259 
z
M 844 2259 
Q 844 1131 1108 757 
Q 1372 384 1759 384 
Q 2147 384 2411 759 
Q 2675 1134 2675 2259 
Q 2675 3391 2411 3762 
Q 2147 4134 1753 4134 
Q 1366 4134 1134 3806 
Q 844 3388 844 2259 
z
" transform="scale(0.015625)"/>
       </defs>
       <use xlink:href="#ArialMT-30"/>
      </g>
     </g>
    </g>
    <g id="xtick_2">
     <g id="line2d_2">
      <g>
       <use xlink:href="#m84474accab" x="169.615" y="163.96" style="stroke: #000000; stroke-width: 0.8"/>
      </g>
     </g>
     <g id="text_2">
      <!-- 10 -->
      <g transform="translate(161.829688 180.980937)scale(0.14 -0.14)">
       <defs>
        <path id="ArialMT-31" d="M 2384 0 
L 1822 0 
L 1822 3584 
Q 1619 3391 1289 3197 
Q 959 3003 697 2906 
L 697 3450 
Q 1169 3672 1522 3987 
Q 1875 4303 2022 4600 
L 2384 4600 
L 2384 0 
z
" transform="scale(0.015625)"/>
       </defs>
       <use xlink:href="#ArialMT-31"/>
       <use xlink:href="#ArialMT-30" x="55.615234"/>
      </g>
     </g>
    </g>
    <g id="xtick_3">
     <g id="line2d_3">
      <g>
       <use xlink:href="#m84474accab" x="263.492273" y="163.96" style="stroke: #000000; stroke-width: 0.8"/>
      </g>
     </g>
     <g id="text_3">
      <!-- 20 -->
      <g transform="translate(255.70696 180.980937)scale(0.14 -0.14)">
       <defs>
        <path id="ArialMT-32" d="M 3222 541 
L 3222 0 
L 194 0 
Q 188 203 259 391 
Q 375 700 629 1000 
Q 884 1300 1366 1694 
Q 2113 2306 2375 2664 
Q 2638 3022 2638 3341 
Q 2638 3675 2398 3904 
Q 2159 4134 1775 4134 
Q 1369 4134 1125 3890 
Q 881 3647 878 3216 
L 300 3275 
Q 359 3922 746 4261 
Q 1134 4600 1788 4600 
Q 2447 4600 2831 4234 
Q 3216 3869 3216 3328 
Q 3216 3053 3103 2787 
Q 2991 2522 2730 2228 
Q 2469 1934 1863 1422 
Q 1356 997 1212 845 
Q 1069 694 975 541 
L 3222 541 
z
" transform="scale(0.015625)"/>
       </defs>
       <use xlink:href="#ArialMT-32"/>
       <use xlink:href="#ArialMT-30" x="55.615234"/>
      </g>
     </g>
    </g>
    <g id="text_4">
     <!-- Pulse duration (ns) -->
     <g transform="translate(110.8675 197.955)scale(0.14 -0.14)">
      <defs>
       <path id="ArialMT-50" d="M 494 0 
L 494 4581 
L 2222 4581 
Q 2678 4581 2919 4538 
Q 3256 4481 3484 4323 
Q 3713 4166 3852 3881 
Q 3991 3597 3991 3256 
Q 3991 2672 3619 2267 
Q 3247 1863 2275 1863 
L 1100 1863 
L 1100 0 
L 494 0 
z
M 1100 2403 
L 2284 2403 
Q 2872 2403 3119 2622 
Q 3366 2841 3366 3238 
Q 3366 3525 3220 3729 
Q 3075 3934 2838 4000 
Q 2684 4041 2272 4041 
L 1100 4041 
L 1100 2403 
z
" transform="scale(0.015625)"/>
       <path id="ArialMT-75" d="M 2597 0 
L 2597 488 
Q 2209 -75 1544 -75 
Q 1250 -75 995 37 
Q 741 150 617 320 
Q 494 491 444 738 
Q 409 903 409 1263 
L 409 3319 
L 972 3319 
L 972 1478 
Q 972 1038 1006 884 
Q 1059 663 1231 536 
Q 1403 409 1656 409 
Q 1909 409 2131 539 
Q 2353 669 2445 892 
Q 2538 1116 2538 1541 
L 2538 3319 
L 3100 3319 
L 3100 0 
L 2597 0 
z
" transform="scale(0.015625)"/>
       <path id="ArialMT-6c" d="M 409 0 
L 409 4581 
L 972 4581 
L 972 0 
L 409 0 
z
" transform="scale(0.015625)"/>
       <path id="ArialMT-73" d="M 197 991 
L 753 1078 
Q 800 744 1014 566 
Q 1228 388 1613 388 
Q 2000 388 2187 545 
Q 2375 703 2375 916 
Q 2375 1106 2209 1216 
Q 2094 1291 1634 1406 
Q 1016 1563 777 1677 
Q 538 1791 414 1992 
Q 291 2194 291 2438 
Q 291 2659 392 2848 
Q 494 3038 669 3163 
Q 800 3259 1026 3326 
Q 1253 3394 1513 3394 
Q 1903 3394 2198 3281 
Q 2494 3169 2634 2976 
Q 2775 2784 2828 2463 
L 2278 2388 
Q 2241 2644 2061 2787 
Q 1881 2931 1553 2931 
Q 1166 2931 1000 2803 
Q 834 2675 834 2503 
Q 834 2394 903 2306 
Q 972 2216 1119 2156 
Q 1203 2125 1616 2013 
Q 2213 1853 2448 1751 
Q 2684 1650 2818 1456 
Q 2953 1263 2953 975 
Q 2953 694 2789 445 
Q 2625 197 2315 61 
Q 2006 -75 1616 -75 
Q 969 -75 630 194 
Q 291 463 197 991 
z
" transform="scale(0.015625)"/>
       <path id="ArialMT-65" d="M 2694 1069 
L 3275 997 
Q 3138 488 2766 206 
Q 2394 -75 1816 -75 
Q 1088 -75 661 373 
Q 234 822 234 1631 
Q 234 2469 665 2931 
Q 1097 3394 1784 3394 
Q 2450 3394 2872 2941 
Q 3294 2488 3294 1666 
Q 3294 1616 3291 1516 
L 816 1516 
Q 847 969 1125 678 
Q 1403 388 1819 388 
Q 2128 388 2347 550 
Q 2566 713 2694 1069 
z
M 847 1978 
L 2700 1978 
Q 2663 2397 2488 2606 
Q 2219 2931 1791 2931 
Q 1403 2931 1139 2672 
Q 875 2413 847 1978 
z
" transform="scale(0.015625)"/>
       <path id="ArialMT-20" transform="scale(0.015625)"/>
       <path id="ArialMT-64" d="M 2575 0 
L 2575 419 
Q 2259 -75 1647 -75 
Q 1250 -75 917 144 
Q 584 363 401 755 
Q 219 1147 219 1656 
Q 219 2153 384 2558 
Q 550 2963 881 3178 
Q 1213 3394 1622 3394 
Q 1922 3394 2156 3267 
Q 2391 3141 2538 2938 
L 2538 4581 
L 3097 4581 
L 3097 0 
L 2575 0 
z
M 797 1656 
Q 797 1019 1065 703 
Q 1334 388 1700 388 
Q 2069 388 2326 689 
Q 2584 991 2584 1609 
Q 2584 2291 2321 2609 
Q 2059 2928 1675 2928 
Q 1300 2928 1048 2622 
Q 797 2316 797 1656 
z
" transform="scale(0.015625)"/>
       <path id="ArialMT-72" d="M 416 0 
L 416 3319 
L 922 3319 
L 922 2816 
Q 1116 3169 1280 3281 
Q 1444 3394 1641 3394 
Q 1925 3394 2219 3213 
L 2025 2691 
Q 1819 2813 1613 2813 
Q 1428 2813 1281 2702 
Q 1134 2591 1072 2394 
Q 978 2094 978 1738 
L 978 0 
L 416 0 
z
" transform="scale(0.015625)"/>
       <path id="ArialMT-61" d="M 2588 409 
Q 2275 144 1986 34 
Q 1697 -75 1366 -75 
Q 819 -75 525 192 
Q 231 459 231 875 
Q 231 1119 342 1320 
Q 453 1522 633 1644 
Q 813 1766 1038 1828 
Q 1203 1872 1538 1913 
Q 2219 1994 2541 2106 
Q 2544 2222 2544 2253 
Q 2544 2597 2384 2738 
Q 2169 2928 1744 2928 
Q 1347 2928 1158 2789 
Q 969 2650 878 2297 
L 328 2372 
Q 403 2725 575 2942 
Q 747 3159 1072 3276 
Q 1397 3394 1825 3394 
Q 2250 3394 2515 3294 
Q 2781 3194 2906 3042 
Q 3031 2891 3081 2659 
Q 3109 2516 3109 2141 
L 3109 1391 
Q 3109 606 3145 398 
Q 3181 191 3288 0 
L 2700 0 
Q 2613 175 2588 409 
z
M 2541 1666 
Q 2234 1541 1622 1453 
Q 1275 1403 1131 1340 
Q 988 1278 909 1158 
Q 831 1038 831 891 
Q 831 666 1001 516 
Q 1172 366 1500 366 
Q 1825 366 2078 508 
Q 2331 650 2450 897 
Q 2541 1088 2541 1459 
L 2541 1666 
z
" transform="scale(0.015625)"/>
       <path id="ArialMT-74" d="M 1650 503 
L 1731 6 
Q 1494 -44 1306 -44 
Q 1000 -44 831 53 
Q 663 150 594 308 
Q 525 466 525 972 
L 525 2881 
L 113 2881 
L 113 3319 
L 525 3319 
L 525 4141 
L 1084 4478 
L 1084 3319 
L 1650 3319 
L 1650 2881 
L 1084 2881 
L 1084 941 
Q 1084 700 1114 631 
Q 1144 563 1211 522 
Q 1278 481 1403 481 
Q 1497 481 1650 503 
z
" transform="scale(0.015625)"/>
       <path id="ArialMT-69" d="M 425 3934 
L 425 4581 
L 988 4581 
L 988 3934 
L 425 3934 
z
M 425 0 
L 425 3319 
L 988 3319 
L 988 0 
L 425 0 
z
" transform="scale(0.015625)"/>
       <path id="ArialMT-6f" d="M 213 1659 
Q 213 2581 725 3025 
Q 1153 3394 1769 3394 
Q 2453 3394 2887 2945 
Q 3322 2497 3322 1706 
Q 3322 1066 3130 698 
Q 2938 331 2570 128 
Q 2203 -75 1769 -75 
Q 1072 -75 642 372 
Q 213 819 213 1659 
z
M 791 1659 
Q 791 1022 1069 705 
Q 1347 388 1769 388 
Q 2188 388 2466 706 
Q 2744 1025 2744 1678 
Q 2744 2294 2464 2611 
Q 2184 2928 1769 2928 
Q 1347 2928 1069 2612 
Q 791 2297 791 1659 
z
" transform="scale(0.015625)"/>
       <path id="ArialMT-6e" d="M 422 0 
L 422 3319 
L 928 3319 
L 928 2847 
Q 1294 3394 1984 3394 
Q 2284 3394 2536 3286 
Q 2788 3178 2913 3003 
Q 3038 2828 3088 2588 
Q 3119 2431 3119 2041 
L 3119 0 
L 2556 0 
L 2556 2019 
Q 2556 2363 2490 2533 
Q 2425 2703 2258 2804 
Q 2091 2906 1866 2906 
Q 1506 2906 1245 2678 
Q 984 2450 984 1813 
L 984 0 
L 422 0 
z
" transform="scale(0.015625)"/>
       <path id="ArialMT-28" d="M 1497 -1347 
Q 1031 -759 709 28 
Q 388 816 388 1659 
Q 388 2403 628 3084 
Q 909 3875 1497 4659 
L 1900 4659 
Q 1522 4009 1400 3731 
Q 1209 3300 1100 2831 
Q 966 2247 966 1656 
Q 966 153 1900 -1347 
L 1497 -1347 
z
" transform="scale(0.015625)"/>
       <path id="ArialMT-29" d="M 791 -1347 
L 388 -1347 
Q 1322 153 1322 1656 
Q 1322 2244 1188 2822 
Q 1081 3291 891 3722 
Q 769 4003 388 4659 
L 791 4659 
Q 1378 3875 1659 3084 
Q 1900 2403 1900 1659 
Q 1900 816 1576 28 
Q 1253 -759 791 -1347 
z
" transform="scale(0.015625)"/>
      </defs>
      <use xlink:href="#ArialMT-50"/>
      <use xlink:href="#ArialMT-75" x="66.699219"/>
      <use xlink:href="#ArialMT-6c" x="122.314453"/>
      <use xlink:href="#ArialMT-73" x="144.53125"/>
      <use xlink:href="#ArialMT-65" x="194.53125"/>
      <use xlink:href="#ArialMT-20" x="250.146484"/>
      <use xlink:href="#ArialMT-64" x="277.929688"/>
      <use xlink:href="#ArialMT-75" x="333.544922"/>
      <use xlink:href="#ArialMT-72" x="389.160156"/>
      <use xlink:href="#ArialMT-61" x="422.460938"/>
      <use xlink:href="#ArialMT-74" x="478.076172"/>
      <use xlink:href="#ArialMT-69" x="505.859375"/>
      <use xlink:href="#ArialMT-6f" x="528.076172"/>
      <use xlink:href="#ArialMT-6e" x="583.691406"/>
      <use xlink:href="#ArialMT-20" x="639.306641"/>
      <use xlink:href="#ArialMT-28" x="667.089844"/>
      <use xlink:href="#ArialMT-6e" x="700.390625"/>
      <use xlink:href="#ArialMT-73" x="756.005859"/>
      <use xlink:href="#ArialMT-29" x="806.005859"/>
     </g>
    </g>
   </g>
   <g id="matplotlib.axis_2">
    <g id="ytick_1">
     <g id="line2d_4">
      <defs>
       <path id="m325575889c" d="M 0 0 
L -3.5 0 
" style="stroke: #000000; stroke-width: 0.8"/>
      </defs>
      <g>
       <use xlink:href="#m325575889c" x="66.35" y="157.194545" style="stroke: #000000; stroke-width: 0.8"/>
      </g>
     </g>
     <g id="text_5">
      <!-- 0.00 -->
      <g transform="translate(32.104687 162.205014)scale(0.14 -0.14)">
       <defs>
        <path id="ArialMT-2e" d="M 581 0 
L 581 641 
L 1222 641 
L 1222 0 
L 581 0 
z
" transform="scale(0.015625)"/>
       </defs>
       <use xlink:href="#ArialMT-30"/>
       <use xlink:href="#ArialMT-2e" x="55.615234"/>
       <use xlink:href="#ArialMT-30" x="83.398438"/>
       <use xlink:href="#ArialMT-30" x="139.013672"/>
      </g>
     </g>
    </g>
    <g id="ytick_2">
     <g id="line2d_5">
      <g>
       <use xlink:href="#m325575889c" x="66.35" y="123.36389" style="stroke: #000000; stroke-width: 0.8"/>
      </g>
     </g>
     <g id="text_6">
      <!-- 0.25 -->
      <g transform="translate(32.104687 128.374358)scale(0.14 -0.14)">
       <defs>
        <path id="ArialMT-35" d="M 266 1200 
L 856 1250 
Q 922 819 1161 601 
Q 1400 384 1738 384 
Q 2144 384 2425 690 
Q 2706 997 2706 1503 
Q 2706 1984 2436 2262 
Q 2166 2541 1728 2541 
Q 1456 2541 1237 2417 
Q 1019 2294 894 2097 
L 366 2166 
L 809 4519 
L 3088 4519 
L 3088 3981 
L 1259 3981 
L 1013 2750 
Q 1425 3038 1878 3038 
Q 2478 3038 2890 2622 
Q 3303 2206 3303 1553 
Q 3303 931 2941 478 
Q 2500 -78 1738 -78 
Q 1113 -78 717 272 
Q 322 622 266 1200 
z
" transform="scale(0.015625)"/>
       </defs>
       <use xlink:href="#ArialMT-30"/>
       <use xlink:href="#ArialMT-2e" x="55.615234"/>
       <use xlink:href="#ArialMT-32" x="83.398438"/>
       <use xlink:href="#ArialMT-35" x="139.013672"/>
      </g>
     </g>
    </g>
    <g id="ytick_3">
     <g id="line2d_6">
      <g>
       <use xlink:href="#m325575889c" x="66.35" y="89.533234" style="stroke: #000000; stroke-width: 0.8"/>
      </g>
     </g>
     <g id="text_7">
      <!-- 0.50 -->
      <g transform="translate(32.104687 94.543703)scale(0.14 -0.14)">
       <use xlink:href="#ArialMT-30"/>
       <use xlink:href="#ArialMT-2e" x="55.615234"/>
       <use xlink:href="#ArialMT-35" x="83.398438"/>
       <use xlink:href="#ArialMT-30" x="139.013672"/>
      </g>
     </g>
    </g>
    <g id="ytick_4">
     <g id="line2d_7">
      <g>
       <use xlink:href="#m325575889c" x="66.35" y="55.702578" style="stroke: #000000; stroke-width: 0.8"/>
      </g>
     </g>
     <g id="text_8">
      <!-- 0.75 -->
      <g transform="translate(32.104687 60.713047)scale(0.14 -0.14)">
       <defs>
        <path id="ArialMT-37" d="M 303 3981 
L 303 4522 
L 3269 4522 
L 3269 4084 
Q 2831 3619 2401 2847 
Q 1972 2075 1738 1259 
Q 1569 684 1522 0 
L 944 0 
Q 953 541 1156 1306 
Q 1359 2072 1739 2783 
Q 2119 3494 2547 3981 
L 303 3981 
z
" transform="scale(0.015625)"/>
       </defs>
       <use xlink:href="#ArialMT-30"/>
       <use xlink:href="#ArialMT-2e" x="55.615234"/>
       <use xlink:href="#ArialMT-37" x="83.398438"/>
       <use xlink:href="#ArialMT-35" x="139.013672"/>
      </g>
     </g>
    </g>
    <g id="ytick_5">
     <g id="line2d_8">
      <g>
       <use xlink:href="#m325575889c" x="66.35" y="21.871922" style="stroke: #000000; stroke-width: 0.8"/>
      </g>
     </g>
     <g id="text_9">
      <!-- 1.00 -->
      <g transform="translate(32.104687 26.882391)scale(0.14 -0.14)">
       <use xlink:href="#ArialMT-31"/>
       <use xlink:href="#ArialMT-2e" x="55.615234"/>
       <use xlink:href="#ArialMT-30" x="83.398438"/>
       <use xlink:href="#ArialMT-30" x="139.013672"/>
      </g>
     </g>
    </g>
    <g id="text_10">
     <!-- Probability -->
     <g transform="translate(25.158125 122.22125)rotate(-90)scale(0.14 -0.14)">
      <defs>
       <path id="ArialMT-62" d="M 941 0 
L 419 0 
L 419 4581 
L 981 4581 
L 981 2947 
Q 1338 3394 1891 3394 
Q 2197 3394 2470 3270 
Q 2744 3147 2920 2923 
Q 3097 2700 3197 2384 
Q 3297 2069 3297 1709 
Q 3297 856 2875 390 
Q 2453 -75 1863 -75 
Q 1275 -75 941 416 
L 941 0 
z
M 934 1684 
Q 934 1088 1097 822 
Q 1363 388 1816 388 
Q 2184 388 2453 708 
Q 2722 1028 2722 1663 
Q 2722 2313 2464 2622 
Q 2206 2931 1841 2931 
Q 1472 2931 1203 2611 
Q 934 2291 934 1684 
z
" transform="scale(0.015625)"/>
       <path id="ArialMT-79" d="M 397 -1278 
L 334 -750 
Q 519 -800 656 -800 
Q 844 -800 956 -737 
Q 1069 -675 1141 -563 
Q 1194 -478 1313 -144 
Q 1328 -97 1363 -6 
L 103 3319 
L 709 3319 
L 1400 1397 
Q 1534 1031 1641 628 
Q 1738 1016 1872 1384 
L 2581 3319 
L 3144 3319 
L 1881 -56 
Q 1678 -603 1566 -809 
Q 1416 -1088 1222 -1217 
Q 1028 -1347 759 -1347 
Q 597 -1347 397 -1278 
z
" transform="scale(0.015625)"/>
      </defs>
      <use xlink:href="#ArialMT-50"/>
      <use xlink:href="#ArialMT-72" x="66.699219"/>
      <use xlink:href="#ArialMT-6f" x="100"/>
      <use xlink:href="#ArialMT-62" x="155.615234"/>
      <use xlink:href="#ArialMT-61" x="211.230469"/>
      <use xlink:href="#ArialMT-62" x="266.845703"/>
      <use xlink:href="#ArialMT-69" x="322.460938"/>
      <use xlink:href="#ArialMT-6c" x="344.677734"/>
      <use xlink:href="#ArialMT-69" x="366.894531"/>
      <use xlink:href="#ArialMT-74" x="389.111328"/>
      <use xlink:href="#ArialMT-79" x="416.894531"/>
     </g>
    </g>
   </g>
   <g id="line2d_9">
    <path d="M 75.737727 157.194545 
L 77.615273 157.194545 
L 79.492818 157.194545 
L 81.370364 157.181013 
L 83.247909 157.09982 
L 85.125455 157.018626 
L 87.003 156.950965 
L 88.880545 156.937432 
L 90.758091 156.910368 
L 92.635636 156.856239 
L 94.513182 156.815642 
L 96.390727 156.788578 
L 98.268273 156.788578 
L 100.145818 156.788578 
L 102.023364 156.788578 
L 103.900909 156.734449 
L 105.778455 156.734449 
L 107.656 156.734449 
L 109.533545 156.720916 
L 111.411091 156.707384 
L 113.288636 156.693852 
L 115.166182 156.693852 
L 117.043727 156.693852 
L 118.921273 156.693852 
L 120.798818 156.680319 
L 122.676364 156.639723 
L 124.553909 156.62619 
L 126.431455 156.585594 
L 128.309 156.572061 
L 130.186545 156.558529 
L 132.064091 156.531465 
L 133.941636 156.490868 
L 135.819182 156.463803 
L 137.696727 156.423207 
L 139.574273 156.38261 
L 141.451818 156.342013 
L 143.329364 156.328481 
L 145.206909 156.287884 
L 147.084455 156.247287 
L 148.962 156.20669 
L 150.839545 156.139029 
L 152.717091 156.111964 
L 154.594636 156.057835 
L 156.472182 155.949577 
L 158.349727 155.868384 
L 160.227273 155.78719 
L 162.104818 155.733061 
L 163.982364 155.705997 
L 165.859909 155.611271 
L 167.737455 155.516545 
L 169.615 155.475948 
L 171.492545 155.381222 
L 173.370091 155.327093 
L 175.247636 155.286496 
L 177.125182 155.178238 
L 179.002727 155.110577 
L 180.880273 155.002319 
L 182.757818 154.94819 
L 184.635364 154.894061 
L 186.512909 154.745206 
L 188.390455 154.691077 
L 190.268 154.623416 
L 192.145545 154.52869 
L 194.023091 154.433964 
L 195.900636 154.258045 
L 197.778182 154.041528 
L 199.655727 153.919738 
L 201.533273 153.825012 
L 203.410818 153.703222 
L 205.288364 153.567899 
L 207.165909 153.51377 
L 209.043455 153.351383 
L 210.921 153.256657 
L 212.798545 153.134867 
L 214.676091 153.026609 
L 216.553636 152.904818 
L 218.431182 152.755963 
L 220.308727 152.634173 
L 222.186273 152.525915 
L 224.063818 152.37706 
L 225.941364 152.241737 
L 227.818909 152.011689 
L 229.696455 151.903431 
L 231.574 151.686915 
L 233.451545 151.53806 
L 235.329091 151.416269 
L 237.206636 151.253882 
L 239.084182 151.050898 
L 240.961727 150.888511 
L 242.839273 150.780253 
L 244.716818 150.563737 
L 246.594364 150.40135 
L 248.471909 150.279559 
L 250.349455 150.130705 
L 252.227 149.887124 
L 254.104545 149.765333 
L 255.982091 149.643543 
L 257.859636 149.535285 
L 259.737182 149.305237 
L 261.614727 149.061656 
L 263.492273 148.831607 
" clip-path="url(#p5ad7698d88)" style="fill: none; stroke: #4c72b0; stroke-width: 1.5; stroke-linecap: square"/>
   </g>
   <g id="line2d_10">
    <path d="M 75.737727 157.194545 
L 77.615273 157.194545 
L 79.492818 157.194545 
L 81.370364 157.181013 
L 83.247909 157.113352 
L 85.125455 157.045691 
L 87.003 157.018626 
L 88.880545 156.978029 
L 90.758091 156.978029 
L 92.635636 156.978029 
L 94.513182 156.950965 
L 96.390727 156.950965 
L 98.268273 156.950965 
L 100.145818 156.937432 
L 102.023364 156.9239 
L 103.900909 156.910368 
L 105.778455 156.910368 
L 107.656 156.842707 
L 109.533545 156.829174 
L 111.411091 156.80211 
L 113.288636 156.747981 
L 115.166182 156.747981 
L 117.043727 156.734449 
L 118.921273 156.666787 
L 120.798818 156.62619 
L 122.676364 156.585594 
L 124.553909 156.517932 
L 126.431455 156.463803 
L 128.309 156.355545 
L 130.186545 156.328481 
L 132.064091 156.247287 
L 133.941636 156.139029 
L 135.819182 156.057835 
L 137.696727 155.895448 
L 139.574273 155.746593 
L 141.451818 155.584206 
L 143.329364 155.381222 
L 145.206909 155.286496 
L 147.084455 155.110577 
L 148.962 154.866996 
L 150.839545 154.636948 
L 152.717091 154.366303 
L 154.594636 154.055061 
L 156.472182 153.703222 
L 158.349727 153.324318 
L 160.227273 152.877754 
L 162.104818 152.309399 
L 163.982364 151.700447 
L 165.859909 151.159156 
L 167.737455 150.441947 
L 169.615 149.724737 
L 171.492545 149.048124 
L 173.370091 148.24972 
L 175.247636 147.451317 
L 177.125182 146.69351 
L 179.002727 145.840977 
L 180.880273 144.812525 
L 182.757818 144.095316 
L 184.635364 142.836815 
L 186.512909 141.578315 
L 188.390455 140.482201 
L 190.268 139.27783 
L 192.145545 138.032862 
L 194.023091 137.180329 
L 195.900636 135.583523 
L 197.778182 134.230296 
L 199.655727 132.850006 
L 201.533273 131.659166 
L 203.410818 130.021763 
L 205.288364 128.898585 
L 207.165909 127.450633 
L 209.043455 125.88089 
L 210.921 124.257019 
L 212.798545 123.093244 
L 214.676091 121.455841 
L 216.553636 120.007889 
L 218.431182 118.654662 
L 220.308727 117.20671 
L 222.186273 115.785823 
L 224.063818 114.797968 
L 225.941364 113.431209 
L 227.818909 111.834402 
L 229.696455 110.50824 
L 231.574 109.317401 
L 233.451545 107.612336 
L 235.329091 106.543288 
L 237.206636 105.00061 
L 239.084182 103.728577 
L 240.961727 102.42948 
L 242.839273 100.954463 
L 244.716818 99.520043 
L 246.594364 98.342737 
L 248.471909 97.233091 
L 250.349455 96.15051 
L 252.227 94.797284 
L 254.104545 93.525251 
L 255.982091 92.361477 
L 257.859636 91.30596 
L 259.737182 90.128653 
L 261.614727 89.086669 
L 263.492273 88.207072 
" clip-path="url(#p5ad7698d88)" style="fill: none; stroke: #55a868; stroke-width: 1.5; stroke-linecap: square"/>
   </g>
   <g id="line2d_11">
    <path d="M 75.737727 157.194545 
L 77.615273 157.194545 
L 79.492818 157.194545 
L 81.370364 157.194545 
L 83.247909 157.181013 
L 85.125455 157.153949 
L 87.003 157.140416 
L 88.880545 157.113352 
L 90.758091 157.09982 
L 92.635636 157.045691 
L 94.513182 157.005094 
L 96.390727 156.991562 
L 98.268273 156.964497 
L 100.145818 156.950965 
L 102.023364 156.896836 
L 103.900909 156.856239 
L 105.778455 156.815642 
L 107.656 156.734449 
L 109.533545 156.612658 
L 111.411091 156.436739 
L 113.288636 156.057835 
L 115.166182 155.354158 
L 117.043727 154.596351 
L 118.921273 153.324318 
L 120.798818 151.700447 
L 122.676364 149.670608 
L 124.553909 147.559575 
L 126.431455 144.596009 
L 128.309 141.659508 
L 130.186545 138.492959 
L 132.064091 135.339942 
L 133.941636 131.645634 
L 135.819182 128.113714 
L 137.696727 124.446471 
L 139.574273 120.765695 
L 141.451818 117.490888 
L 143.329364 114.202548 
L 145.206909 110.751821 
L 147.084455 107.964175 
L 148.962 105.203594 
L 150.839545 102.510673 
L 152.717091 99.993673 
L 154.594636 97.246623 
L 156.472182 94.513106 
L 158.349727 91.914912 
L 160.227273 89.492637 
L 162.104818 87.043298 
L 163.982364 84.60749 
L 165.859909 82.171683 
L 167.737455 79.884731 
L 169.615 77.570714 
L 171.492545 75.405552 
L 173.370091 73.294519 
L 175.247636 71.156422 
L 177.125182 69.248373 
L 179.002727 67.096743 
L 180.880273 65.148097 
L 182.757818 62.928806 
L 184.635364 60.993693 
L 186.512909 59.491612 
L 188.390455 57.773014 
L 190.268 56.040885 
L 192.145545 54.660594 
L 194.023091 53.158513 
L 195.900636 51.453448 
L 197.778182 50.073157 
L 199.655727 48.787592 
L 201.533273 47.718543 
L 203.410818 46.50064 
L 205.288364 45.404526 
L 207.165909 44.484333 
L 209.043455 43.51001 
L 210.921 42.19738 
L 212.798545 41.344848 
L 214.676091 40.316396 
L 216.553636 39.355605 
L 218.431182 38.638395 
L 220.308727 37.82646 
L 222.186273 37.095717 
L 224.063818 36.419104 
L 225.941364 35.742491 
L 227.818909 35.350056 
L 229.696455 34.673442 
L 231.574 34.023894 
L 233.451545 33.442007 
L 235.329091 32.995442 
L 237.206636 32.548877 
L 239.084182 31.994054 
L 240.961727 31.54749 
L 242.839273 31.033264 
L 244.716818 30.586699 
L 246.594364 30.194264 
L 248.471909 29.910086 
L 250.349455 29.477054 
L 252.227 29.044021 
L 254.104545 28.692182 
L 255.982091 28.421537 
L 257.859636 28.002037 
L 259.737182 27.677263 
L 261.614727 27.487811 
L 263.492273 27.203634 
" clip-path="url(#p5ad7698d88)" style="fill: none; stroke: #c44e52; stroke-width: 1.5; stroke-linecap: square"/>
   </g>
   <g id="line2d_12">
    <path d="M 75.737727 157.194545 
L 77.615273 157.194545 
L 79.492818 157.194545 
L 81.370364 157.194545 
L 83.247909 157.194545 
L 85.125455 157.194545 
L 87.003 157.194545 
L 88.880545 157.181013 
L 90.758091 157.167481 
L 92.635636 157.153949 
L 94.513182 157.153949 
L 96.390727 157.140416 
L 98.268273 157.126884 
L 100.145818 156.950965 
L 102.023364 156.436739 
L 103.900909 155.232367 
L 105.778455 153.026609 
L 107.656 147.95201 
L 109.533545 141.00996 
L 111.411091 131.983941 
L 113.288636 121.482905 
L 115.166182 109.858692 
L 117.043727 97.855575 
L 118.921273 86.799717 
L 120.798818 77.232407 
L 122.676364 68.192856 
L 124.553909 61.670306 
L 126.431455 55.215417 
L 128.309 50.492657 
L 130.186545 46.148801 
L 132.064091 43.022848 
L 133.941636 40.086347 
L 135.819182 37.867056 
L 137.696727 36.161991 
L 139.574273 34.389265 
L 141.451818 33.252555 
L 143.329364 31.980522 
L 145.206909 31.100925 
L 147.084455 30.23486 
L 148.962 29.449989 
L 150.839545 28.786908 
L 152.717091 28.191489 
L 154.594636 27.501343 
L 156.472182 27.095376 
L 158.349727 26.70294 
L 160.227273 26.324037 
L 162.104818 25.972198 
L 163.982364 25.606827 
L 165.859909 25.282052 
L 167.737455 24.916681 
L 169.615 24.632504 
L 171.492545 24.375391 
L 173.370091 24.158875 
L 175.247636 24.023552 
L 177.125182 23.847633 
L 179.002727 23.671713 
L 180.880273 23.522858 
L 182.757818 23.319874 
L 184.635364 23.211616 
L 186.512909 23.11689 
L 188.390455 22.9951 
L 190.268 22.913906 
L 192.145545 22.846245 
L 194.023091 22.765052 
L 195.900636 22.656793 
L 197.778182 22.602664 
L 199.655727 22.562068 
L 201.533273 22.548535 
L 203.410818 22.426745 
L 205.288364 22.399681 
L 207.165909 22.332019 
L 209.043455 22.237293 
L 210.921 22.223761 
L 212.798545 22.183164 
L 214.676091 22.1561 
L 216.553636 22.1561 
L 218.431182 22.129035 
L 220.308727 22.115503 
L 222.186273 22.101971 
L 224.063818 22.074906 
L 225.941364 22.047842 
L 227.818909 22.034309 
L 229.696455 22.007245 
L 231.574 22.007245 
L 233.451545 21.98018 
L 235.329091 21.953116 
L 237.206636 21.939584 
L 239.084182 21.939584 
L 240.961727 21.939584 
L 242.839273 21.939584 
L 244.716818 21.939584 
L 246.594364 21.939584 
L 248.471909 21.939584 
L 250.349455 21.939584 
L 252.227 21.939584 
L 254.104545 21.939584 
L 255.982091 21.898987 
L 257.859636 21.898987 
L 259.737182 21.885455 
L 261.614727 21.885455 
L 263.492273 21.885455 
" clip-path="url(#p5ad7698d88)" style="fill: none; stroke: #8172b2; stroke-width: 1.5; stroke-linecap: square"/>
   </g>
   <g id="patch_3">
    <path d="M 66.35 163.96 
L 66.35 15.12 
" style="fill: none; stroke: #000000; stroke-width: 0.8; stroke-linejoin: miter; stroke-linecap: square"/>
   </g>
   <g id="patch_4">
    <path d="M 272.88 163.96 
L 272.88 15.12 
" style="fill: none; stroke: #000000; stroke-width: 0.8; stroke-linejoin: miter; stroke-linecap: square"/>
   </g>
   <g id="patch_5">
    <path d="M 66.35 163.96 
L 272.88 163.96 
" style="fill: none; stroke: #000000; stroke-width: 0.8; stroke-linejoin: miter; stroke-linecap: square"/>
   </g>
   <g id="patch_6">
    <path d="M 66.35 15.12 
L 272.88 15.12 
" style="fill: none; stroke: #000000; stroke-width: 0.8; stroke-linejoin: miter; stroke-linecap: square"/>
   </g>
   <g id="legend_1">
    <g id="patch_7">
     <path d="M 76.15 131.246875 
L 171.137812 131.246875 
Q 173.937813 131.246875 173.937813 128.446875 
L 173.937813 50.633125 
Q 173.937813 47.833125 171.137812 47.833125 
L 76.15 47.833125 
Q 73.35 47.833125 73.35 50.633125 
L 73.35 128.446875 
Q 73.35 131.246875 76.15 131.246875 
z
" style="fill: #ffffff; opacity: 0.8; stroke: #cccccc; stroke-linejoin: miter"/>
    </g>
    <g id="line2d_13">
     <path d="M 78.95 58.554063 
L 92.95 58.554063 
L 106.95 58.554063 
" style="fill: none; stroke: #4c72b0; stroke-width: 1.5; stroke-linecap: square"/>
    </g>
    <g id="text_11">
     <!-- u=0 m/s -->
     <g transform="translate(118.15 63.454063)scale(0.14 -0.14)">
      <defs>
       <path id="ArialMT-3d" d="M 3381 2694 
L 356 2694 
L 356 3219 
L 3381 3219 
L 3381 2694 
z
M 3381 1303 
L 356 1303 
L 356 1828 
L 3381 1828 
L 3381 1303 
z
" transform="scale(0.015625)"/>
       <path id="ArialMT-6d" d="M 422 0 
L 422 3319 
L 925 3319 
L 925 2853 
Q 1081 3097 1340 3245 
Q 1600 3394 1931 3394 
Q 2300 3394 2536 3241 
Q 2772 3088 2869 2813 
Q 3263 3394 3894 3394 
Q 4388 3394 4653 3120 
Q 4919 2847 4919 2278 
L 4919 0 
L 4359 0 
L 4359 2091 
Q 4359 2428 4304 2576 
Q 4250 2725 4106 2815 
Q 3963 2906 3769 2906 
Q 3419 2906 3187 2673 
Q 2956 2441 2956 1928 
L 2956 0 
L 2394 0 
L 2394 2156 
Q 2394 2531 2256 2718 
Q 2119 2906 1806 2906 
Q 1569 2906 1367 2781 
Q 1166 2656 1075 2415 
Q 984 2175 984 1722 
L 984 0 
L 422 0 
z
" transform="scale(0.015625)"/>
       <path id="ArialMT-2f" d="M 0 -78 
L 1328 4659 
L 1778 4659 
L 453 -78 
L 0 -78 
z
" transform="scale(0.015625)"/>
      </defs>
      <use xlink:href="#ArialMT-75"/>
      <use xlink:href="#ArialMT-3d" x="55.615234"/>
      <use xlink:href="#ArialMT-30" x="114.013672"/>
      <use xlink:href="#ArialMT-20" x="169.628906"/>
      <use xlink:href="#ArialMT-6d" x="197.412109"/>
      <use xlink:href="#ArialMT-2f" x="280.712891"/>
      <use xlink:href="#ArialMT-73" x="308.496094"/>
     </g>
    </g>
    <g id="line2d_14">
     <path d="M 78.95 78.3575 
L 92.95 78.3575 
L 106.95 78.3575 
" style="fill: none; stroke: #55a868; stroke-width: 1.5; stroke-linecap: square"/>
    </g>
    <g id="text_12">
     <!-- u=2 m/s -->
     <g transform="translate(118.15 83.2575)scale(0.14 -0.14)">
      <use xlink:href="#ArialMT-75"/>
      <use xlink:href="#ArialMT-3d" x="55.615234"/>
      <use xlink:href="#ArialMT-32" x="114.013672"/>
      <use xlink:href="#ArialMT-20" x="169.628906"/>
      <use xlink:href="#ArialMT-6d" x="197.412109"/>
      <use xlink:href="#ArialMT-2f" x="280.712891"/>
      <use xlink:href="#ArialMT-73" x="308.496094"/>
     </g>
    </g>
    <g id="line2d_15">
     <path d="M 78.95 98.160938 
L 92.95 98.160938 
L 106.95 98.160938 
" style="fill: none; stroke: #c44e52; stroke-width: 1.5; stroke-linecap: square"/>
    </g>
    <g id="text_13">
     <!-- u=4 m/s -->
     <g transform="translate(118.15 103.060938)scale(0.14 -0.14)">
      <defs>
       <path id="ArialMT-34" d="M 2069 0 
L 2069 1097 
L 81 1097 
L 81 1613 
L 2172 4581 
L 2631 4581 
L 2631 1613 
L 3250 1613 
L 3250 1097 
L 2631 1097 
L 2631 0 
L 2069 0 
z
M 2069 1613 
L 2069 3678 
L 634 1613 
L 2069 1613 
z
" transform="scale(0.015625)"/>
      </defs>
      <use xlink:href="#ArialMT-75"/>
      <use xlink:href="#ArialMT-3d" x="55.615234"/>
      <use xlink:href="#ArialMT-34" x="114.013672"/>
      <use xlink:href="#ArialMT-20" x="169.628906"/>
      <use xlink:href="#ArialMT-6d" x="197.412109"/>
      <use xlink:href="#ArialMT-2f" x="280.712891"/>
      <use xlink:href="#ArialMT-73" x="308.496094"/>
     </g>
    </g>
    <g id="line2d_16">
     <path d="M 78.95 117.964375 
L 92.95 117.964375 
L 106.95 117.964375 
" style="fill: none; stroke: #8172b2; stroke-width: 1.5; stroke-linecap: square"/>
    </g>
    <g id="text_14">
     <!-- u=6 m/s -->
     <g transform="translate(118.15 122.864375)scale(0.14 -0.14)">
      <defs>
       <path id="ArialMT-36" d="M 3184 3459 
L 2625 3416 
Q 2550 3747 2413 3897 
Q 2184 4138 1850 4138 
Q 1581 4138 1378 3988 
Q 1113 3794 959 3422 
Q 806 3050 800 2363 
Q 1003 2672 1297 2822 
Q 1591 2972 1913 2972 
Q 2475 2972 2870 2558 
Q 3266 2144 3266 1488 
Q 3266 1056 3080 686 
Q 2894 316 2569 119 
Q 2244 -78 1831 -78 
Q 1128 -78 684 439 
Q 241 956 241 2144 
Q 241 3472 731 4075 
Q 1159 4600 1884 4600 
Q 2425 4600 2770 4297 
Q 3116 3994 3184 3459 
z
M 888 1484 
Q 888 1194 1011 928 
Q 1134 663 1356 523 
Q 1578 384 1822 384 
Q 2178 384 2434 671 
Q 2691 959 2691 1453 
Q 2691 1928 2437 2201 
Q 2184 2475 1800 2475 
Q 1419 2475 1153 2201 
Q 888 1928 888 1484 
z
" transform="scale(0.015625)"/>
      </defs>
      <use xlink:href="#ArialMT-75"/>
      <use xlink:href="#ArialMT-3d" x="55.615234"/>
      <use xlink:href="#ArialMT-36" x="114.013672"/>
      <use xlink:href="#ArialMT-20" x="169.628906"/>
      <use xlink:href="#ArialMT-6d" x="197.412109"/>
      <use xlink:href="#ArialMT-2f" x="280.712891"/>
      <use xlink:href="#ArialMT-73" x="308.496094"/>
     </g>
    </g>
   </g>
  </g>
 </g>
 <defs>
  <clipPath id="p5ad7698d88">
   <rect x="66.35" y="15.12" width="206.53" height="148.84"/>
  </clipPath>
 </defs>
</svg>
