<?xml version="1.0" encoding="utf-8" standalone="no"?>
<!DOCTYPE svg PUBLIC "-//W3C//DTD SVG 1.1//EN"
  "http://www.w3.org/Graphics/SVG/1.1/DTD/svg11.dtd">
<svg xmlns:xlink="http://www.w3.org/1999/xlink" width="360pt" height="144pt" viewBox="0 0 360 144" xmlns="http://www.w3.org/2000/svg" version="1.1">
 <metadata>
  <rdf:RDF xmlns:dc="http://purl.org/dc/elements/1.1/" xmlns:cc="http://creativecommons.org/ns#" xmlns:rdf="http://www.w3.org/1999/02/22-rdf-syntax-ns#">
   <cc:Work>
    <dc:type rdf:resource="http://purl.org/dc/dcmitype/StillImage"/>
    <dc:date>2024-01-28T17:39:32.855052</dc:date>
    <dc:format>image/svg+xml</dc:format>
    <dc:creator>
     <cc:Agent>
      <dc:title>Matplotlib v3.5.3, https://matplotlib.org/</dc:title>
     </cc:Agent>
    </dc:creator>
   </cc:Work>
  </rdf:RDF>
 </metadata>
 <defs>
  <style type="text/css">*{stroke-linejoin: round; stroke-linecap: butt}</style>
 </defs>
 <g id="figure_1">
  <g id="patch_1">
   <path d="M 0 144 
L 360 144 
L 360 0 
L 0 0 
z
" style="fill: #ffffff"/>
  </g>
  <g id="axes_1">
   <g id="patch_2">
    <path d="M 45 121.545 
L 324 121.545 
L 324 23.895 
L 45 23.895 
z
" style="fill: #faf0e6"/>
   </g>
   <g id="patch_3">
    <path d="M 101.682738 70.862793 
C 102.237676 70.862793 102.769959 70.642314 103.162359 70.249914 
C 103.554759 69.857514 103.775238 69.325231 103.775238 68.770293 
C 103.775238 68.215356 103.554759 67.683072 103.162359 67.290672 
C 102.769959 66.898272 102.237676 66.677793 101.682738 66.677793 
C 101.127801 66.677793 100.595518 66.898272 100.203117 67.290672 
C 99.810717 67.683072 99.590238 68.215356 99.590238 68.770293 
C 99.590238 69.325231 99.810717 69.857514 100.203117 70.249914 
C 100.595518 70.642314 101.127801 70.862793 101.682738 70.862793 
z
" clip-path="url(#pf7961b9984)" style="fill: #d3d3d3; opacity: 0.99; stroke: #d3d3d3; stroke-linejoin: miter"/>
   </g>
   <g id="patch_4">
    <path d="M 111.61925 106.064334 
C 112.174188 106.064334 112.706471 105.843855 113.098871 105.451455 
C 113.491271 105.059055 113.71175 104.526772 113.71175 103.971834 
C 113.71175 103.416897 113.491271 102.884613 113.098871 102.492213 
C 112.706471 102.099813 112.174188 101.879334 111.61925 101.879334 
C 111.064313 101.879334 110.532029 102.099813 110.139629 102.492213 
C 109.747229 102.884613 109.52675 103.416897 109.52675 103.971834 
C 109.52675 104.526772 109.747229 105.059055 110.139629 105.451455 
C 110.532029 105.843855 111.064313 106.064334 111.61925 106.064334 
z
" clip-path="url(#pf7961b9984)" style="fill: #d3d3d3; opacity: 0.99; stroke: #d3d3d3; stroke-linejoin: miter"/>
   </g>
   <g id="patch_5">
    <path d="M 154.042733 104.246732 
C 154.597671 104.246732 155.129954 104.026253 155.522354 103.633853 
C 155.914754 103.241453 156.135233 102.70917 156.135233 102.154232 
C 156.135233 101.599295 155.914754 101.067011 155.522354 100.674611 
C 155.129954 100.282211 154.597671 100.061732 154.042733 100.061732 
C 153.487796 100.061732 152.955512 100.282211 152.563112 100.674611 
C 152.170712 101.067011 151.950233 101.599295 151.950233 102.154232 
C 151.950233 102.70917 152.170712 103.241453 152.563112 103.633853 
C 152.955512 104.026253 153.487796 104.246732 154.042733 104.246732 
z
" clip-path="url(#pf7961b9984)" style="fill: #d3d3d3; opacity: 0.99; stroke: #d3d3d3; stroke-linejoin: miter"/>
   </g>
   <g id="patch_6">
    <path d="M 59.866713 50.191174 
C 60.421651 50.191174 60.953934 49.970695 61.346334 49.578295 
C 61.738734 49.185895 61.959213 48.653612 61.959213 48.098674 
C 61.959213 47.543737 61.738734 47.011454 61.346334 46.619053 
C 60.953934 46.226653 60.421651 46.006174 59.866713 46.006174 
C 59.311776 46.006174 58.779493 46.226653 58.387092 46.619053 
C 57.994692 47.011454 57.774213 47.543737 57.774213 48.098674 
C 57.774213 48.653612 57.994692 49.185895 58.387092 49.578295 
C 58.779493 49.970695 59.311776 50.191174 59.866713 50.191174 
z
" clip-path="url(#pf7961b9984)" style="fill: #d3d3d3; opacity: 0.99; stroke: #d3d3d3; stroke-linejoin: miter"/>
   </g>
   <g id="patch_7">
    <path d="M 136.908349 51.837872 
C 137.463287 51.837872 137.99557 51.617393 138.38797 51.224993 
C 138.78037 50.832593 139.000849 50.30031 139.000849 49.745372 
C 139.000849 49.190435 138.78037 48.658151 138.38797 48.265751 
C 137.99557 47.873351 137.463287 47.652872 136.908349 47.652872 
C 136.353412 47.652872 135.821128 47.873351 135.428728 48.265751 
C 135.036328 48.658151 134.815849 49.190435 134.815849 49.745372 
C 134.815849 50.30031 135.036328 50.832593 135.428728 51.224993 
C 135.821128 51.617393 136.353412 51.837872 136.908349 51.837872 
z
" clip-path="url(#pf7961b9984)" style="fill: #d3d3d3; opacity: 0.99; stroke: #d3d3d3; stroke-linejoin: miter"/>
   </g>
   <g id="patch_8">
    <path d="M 179.298228 43.117351 
C 179.853165 43.117351 180.385448 42.896872 180.777848 42.504472 
C 181.170249 42.112072 181.390728 41.579789 181.390728 41.024851 
C 181.390728 40.469914 181.170249 39.93763 180.777848 39.54523 
C 180.385448 39.15283 179.853165 38.932351 179.298228 38.932351 
C 178.74329 38.932351 178.211007 39.15283 177.818607 39.54523 
C 177.426207 39.93763 177.205728 40.469914 177.205728 41.024851 
C 177.205728 41.579789 177.426207 42.112072 177.818607 42.504472 
C 178.211007 42.896872 178.74329 43.117351 179.298228 43.117351 
z
" clip-path="url(#pf7961b9984)" style="fill: #d3d3d3; opacity: 0.99; stroke: #d3d3d3; stroke-linejoin: miter"/>
   </g>
   <g id="patch_9">
    <path d="M 71.946204 104.673583 
C 72.501141 104.673583 73.033425 104.453104 73.425825 104.060704 
C 73.818225 103.668304 74.038704 103.13602 74.038704 102.581083 
C 74.038704 102.026145 73.818225 101.493862 73.425825 101.101462 
C 73.033425 100.709062 72.501141 100.488583 71.946204 100.488583 
C 71.391266 100.488583 70.858983 100.709062 70.466583 101.101462 
C 70.074183 101.493862 69.853704 102.026145 69.853704 102.581083 
C 69.853704 103.13602 70.074183 103.668304 70.466583 104.060704 
C 70.858983 104.453104 71.391266 104.673583 71.946204 104.673583 
z
" clip-path="url(#pf7961b9984)" style="fill: #d3d3d3; opacity: 0.99; stroke: #d3d3d3; stroke-linejoin: miter"/>
   </g>
   <g id="patch_10">
    <path d="M 217.576407 74.61631 
C 218.131344 74.61631 218.663627 74.395831 219.056028 74.003431 
C 219.448428 73.611031 219.668907 73.078748 219.668907 72.52381 
C 219.668907 71.968873 219.448428 71.43659 219.056028 71.044189 
C 218.663627 70.651789 218.131344 70.43131 217.576407 70.43131 
C 217.021469 70.43131 216.489186 70.651789 216.096786 71.044189 
C 215.704386 71.43659 215.483907 71.968873 215.483907 72.52381 
C 215.483907 73.078748 215.704386 73.611031 216.096786 74.003431 
C 216.489186 74.395831 217.021469 74.61631 217.576407 74.61631 
z
" clip-path="url(#pf7961b9984)" style="fill: #d3d3d3; opacity: 0.99; stroke: #d3d3d3; stroke-linejoin: miter"/>
   </g>
   <g id="patch_11">
    <path d="M 191.256303 111.584138 
C 191.81124 111.584138 192.343524 111.363659 192.735924 110.971259 
C 193.128324 110.578859 193.348803 110.046576 193.348803 109.491638 
C 193.348803 108.936701 193.128324 108.404418 192.735924 108.012017 
C 192.343524 107.619617 191.81124 107.399138 191.256303 107.399138 
C 190.701365 107.399138 190.169082 107.619617 189.776682 108.012017 
C 189.384282 108.404418 189.163803 108.936701 189.163803 109.491638 
C 189.163803 110.046576 189.384282 110.578859 189.776682 110.971259 
C 190.169082 111.363659 190.701365 111.584138 191.256303 111.584138 
z
" clip-path="url(#pf7961b9984)" style="fill: #d3d3d3; opacity: 0.99; stroke: #d3d3d3; stroke-linejoin: miter"/>
   </g>
   <g id="patch_12">
    <path d="M 230.211295 35.355954 
C 230.766232 35.355954 231.298515 35.135475 231.690915 34.743075 
C 232.083316 34.350675 232.303795 33.818392 232.303795 33.263454 
C 232.303795 32.708517 232.083316 32.176233 231.690915 31.783833 
C 231.298515 31.391433 230.766232 31.170954 230.211295 31.170954 
C 229.656357 31.170954 229.124074 31.391433 228.731674 31.783833 
C 228.339274 32.176233 228.118795 32.708517 228.118795 33.263454 
C 228.118795 33.818392 228.339274 34.350675 228.731674 34.743075 
C 229.124074 35.135475 229.656357 35.355954 230.211295 35.355954 
z
" clip-path="url(#pf7961b9984)" style="fill: #d3d3d3; opacity: 0.99; stroke: #d3d3d3; stroke-linejoin: miter"/>
   </g>
   <g id="patch_13">
    <path d="M 102.612174 34.464023 
C 103.167112 34.464023 103.699395 34.243544 104.091795 33.851144 
C 104.484195 33.458744 104.704674 32.92646 104.704674 32.371523 
C 104.704674 31.816586 104.484195 31.284302 104.091795 30.891902 
C 103.699395 30.499502 103.167112 30.279023 102.612174 30.279023 
C 102.057237 30.279023 101.524953 30.499502 101.132553 30.891902 
C 100.740153 31.284302 100.519674 31.816586 100.519674 32.371523 
C 100.519674 32.92646 100.740153 33.458744 101.132553 33.851144 
C 101.524953 34.243544 102.057237 34.464023 102.612174 34.464023 
z
" clip-path="url(#pf7961b9984)" style="fill: #d3d3d3; opacity: 0.99; stroke: #d3d3d3; stroke-linejoin: miter"/>
   </g>
   <g id="patch_14">
    <path d="M 294.373527 60.471278 
C 294.928465 60.471278 295.460748 60.250799 295.853148 59.858399 
C 296.245548 59.465999 296.466027 58.933715 296.466027 58.378778 
C 296.466027 57.82384 296.245548 57.291557 295.853148 56.899157 
C 295.460748 56.506757 294.928465 56.286278 294.373527 56.286278 
C 293.81859 56.286278 293.286306 56.506757 292.893906 56.899157 
C 292.501506 57.291557 292.281027 57.82384 292.281027 58.378778 
C 292.281027 58.933715 292.501506 59.465999 292.893906 59.858399 
C 293.286306 60.250799 293.81859 60.471278 294.373527 60.471278 
z
" clip-path="url(#pf7961b9984)" style="fill: #d3d3d3; opacity: 0.99; stroke: #d3d3d3; stroke-linejoin: miter"/>
   </g>
   <g id="patch_15">
    <path d="M 180.820009 78.304636 
C 181.374946 78.304636 181.90723 78.084157 182.29963 77.691757 
C 182.69203 77.299357 182.912509 76.767074 182.912509 76.212136 
C 182.912509 75.657199 182.69203 75.124915 182.29963 74.732515 
C 181.90723 74.340115 181.374946 74.119636 180.820009 74.119636 
C 180.265071 74.119636 179.732788 74.340115 179.340388 74.732515 
C 178.947988 75.124915 178.727509 75.657199 178.727509 76.212136 
C 178.727509 76.767074 178.947988 77.299357 179.340388 77.691757 
C 179.732788 78.084157 180.265071 78.304636 180.820009 78.304636 
z
" clip-path="url(#pf7961b9984)" style="fill: #d3d3d3; opacity: 0.99; stroke: #d3d3d3; stroke-linejoin: miter"/>
   </g>
   <g id="patch_16">
    <path d="M 247.353809 93.19594 
C 247.908747 93.19594 248.44103 92.975461 248.83343 92.583061 
C 249.22583 92.190661 249.446309 91.658378 249.446309 91.10344 
C 249.446309 90.548503 249.22583 90.016219 248.83343 89.623819 
C 248.44103 89.231419 247.908747 89.01094 247.353809 89.01094 
C 246.798872 89.01094 246.266589 89.231419 245.874188 89.623819 
C 245.481788 90.016219 245.261309 90.548503 245.261309 91.10344 
C 245.261309 91.658378 245.481788 92.190661 245.874188 92.583061 
C 246.266589 92.975461 246.798872 93.19594 247.353809 93.19594 
z
" clip-path="url(#pf7961b9984)" style="fill: #d3d3d3; opacity: 0.99; stroke: #d3d3d3; stroke-linejoin: miter"/>
   </g>
   <g id="patch_17">
    <path d="M 258.916463 55.511013 
C 259.4714 55.511013 260.003684 55.290534 260.396084 54.898134 
C 260.788484 54.505734 261.008963 53.973451 261.008963 53.418513 
C 261.008963 52.863576 260.788484 52.331292 260.396084 51.938892 
C 260.003684 51.546492 259.4714 51.326013 258.916463 51.326013 
C 258.361525 51.326013 257.829242 51.546492 257.436842 51.938892 
C 257.044442 52.331292 256.823963 52.863576 256.823963 53.418513 
C 256.823963 53.973451 257.044442 54.505734 257.436842 54.898134 
C 257.829242 55.290534 258.361525 55.511013 258.916463 55.511013 
z
" clip-path="url(#pf7961b9984)" style="fill: #d3d3d3; opacity: 0.99; stroke: #d3d3d3; stroke-linejoin: miter"/>
   </g>
   <g id="patch_18">
    <path d="M 293.501733 118.016312 
C 294.05667 118.016312 294.588953 117.795833 294.981353 117.403433 
C 295.373754 117.011033 295.594233 116.47875 295.594233 115.923812 
C 295.594233 115.368875 295.373754 114.836591 294.981353 114.444191 
C 294.588953 114.051791 294.05667 113.831312 293.501733 113.831312 
C 292.946795 113.831312 292.414512 114.051791 292.022112 114.444191 
C 291.629712 114.836591 291.409233 115.368875 291.409233 115.923812 
C 291.409233 116.47875 291.629712 117.011033 292.022112 117.403433 
C 292.414512 117.795833 292.946795 118.016312 293.501733 118.016312 
z
" clip-path="url(#pf7961b9984)" style="fill: #d3d3d3; opacity: 0.99; stroke: #d3d3d3; stroke-linejoin: miter"/>
   </g>
   <g id="patch_19">
    <path d="M 322.792197 82.767376 
C 323.347135 82.767376 323.879418 82.546897 324.271818 82.154497 
C 324.664218 81.762097 324.884697 81.229814 324.884697 80.674876 
C 324.884697 80.119939 324.664218 79.587655 324.271818 79.195255 
C 323.879418 78.802855 323.347135 78.582376 322.792197 78.582376 
C 322.23726 78.582376 321.704976 78.802855 321.312576 79.195255 
C 320.920176 79.587655 320.699697 80.119939 320.699697 80.674876 
C 320.699697 81.229814 320.920176 81.762097 321.312576 82.154497 
C 321.704976 82.546897 322.23726 82.767376 322.792197 82.767376 
z
" clip-path="url(#pf7961b9984)" style="fill: #d3d3d3; opacity: 0.99; stroke: #d3d3d3; stroke-linejoin: miter"/>
   </g>
   <g id="patch_20">
    <path d="M 321.443734 36.548274 
C 321.998671 36.548274 322.530955 36.327795 322.923355 35.935395 
C 323.315755 35.542995 323.536234 35.010711 323.536234 34.455774 
C 323.536234 33.900836 323.315755 33.368553 322.923355 32.976153 
C 322.530955 32.583753 321.998671 32.363274 321.443734 32.363274 
C 320.888796 32.363274 320.356513 32.583753 319.964113 32.976153 
C 319.571713 33.368553 319.351234 33.900836 319.351234 34.455774 
C 319.351234 35.010711 319.571713 35.542995 319.964113 35.935395 
C 320.356513 36.327795 320.888796 36.548274 321.443734 36.548274 
z
" clip-path="url(#pf7961b9984)" style="fill: #d3d3d3; opacity: 0.99; stroke: #d3d3d3; stroke-linejoin: miter"/>
   </g>
   <g id="patch_21">
    <path d="M 226.055722 123.545098 
C 226.61066 123.545098 227.142943 123.324619 227.535343 122.932219 
C 227.927743 122.539819 228.148222 122.007536 228.148222 121.452598 
C 228.148222 120.897661 227.927743 120.365377 227.535343 119.972977 
C 227.142943 119.580577 226.61066 119.360098 226.055722 119.360098 
C 225.500785 119.360098 224.968502 119.580577 224.576102 119.972977 
C 224.183701 120.365377 223.963222 120.897661 223.963222 121.452598 
C 223.963222 122.007536 224.183701 122.539819 224.576102 122.932219 
C 224.968502 123.324619 225.500785 123.545098 226.055722 123.545098 
z
" clip-path="url(#pf7961b9984)" style="fill: #d3d3d3; opacity: 0.99; stroke: #d3d3d3; stroke-linejoin: miter"/>
   </g>
   <g id="patch_22">
    <path d="M 72.774239 57.375183 
C 73.884114 57.375183 74.94868 56.934225 75.73348 56.149425 
C 76.518281 55.364625 76.959239 54.300058 76.959239 53.190183 
C 76.959239 52.080308 76.518281 51.015741 75.73348 50.230941 
C 74.94868 49.446141 73.884114 49.005183 72.774239 49.005183 
C 71.664364 49.005183 70.599797 49.446141 69.814997 50.230941 
C 69.030197 51.015741 68.589239 52.080308 68.589239 53.190183 
C 68.589239 54.300058 69.030197 55.364625 69.814997 56.149425 
C 70.599797 56.934225 71.664364 57.375183 72.774239 57.375183 
L 72.774239 57.375183 
z
" clip-path="url(#pf7961b9984)" style="fill: none; opacity: 0.99; stroke: #ff0000; stroke-linejoin: miter"/>
   </g>
   <g id="patch_23">
    <path d="M 217.792115 76.568907 
C 218.90199 76.568907 219.966556 76.127949 220.751357 75.343149 
C 221.536157 74.558349 221.977115 73.493782 221.977115 72.383907 
C 221.977115 71.274032 221.536157 70.209465 220.751357 69.424665 
C 219.966556 68.639865 218.90199 68.198907 217.792115 68.198907 
C 216.68224 68.198907 215.617673 68.639865 214.832873 69.424665 
C 214.048073 70.209465 213.607115 71.274032 213.607115 72.383907 
C 213.607115 73.493782 214.048073 74.558349 214.832873 75.343149 
C 215.617673 76.127949 216.68224 76.568907 217.792115 76.568907 
L 217.792115 76.568907 
z
" clip-path="url(#pf7961b9984)" style="fill: none; opacity: 0.99; stroke-dasharray: 3.7,1.6; stroke-dashoffset: 0; stroke: #0000ff; stroke-linejoin: miter"/>
   </g>
   <g id="patch_24">
    <path d="M 303.965226 85.365031 
C 305.075101 85.365031 306.139668 84.924073 306.924468 84.139273 
C 307.709268 83.354473 308.150226 82.289906 308.150226 81.180031 
C 308.150226 80.070156 307.709268 79.005589 306.924468 78.220789 
C 306.139668 77.435989 305.075101 76.995031 303.965226 76.995031 
C 302.855351 76.995031 301.790785 77.435989 301.005985 78.220789 
C 300.221184 79.005589 299.780226 80.070156 299.780226 81.180031 
C 299.780226 82.289906 300.221184 83.354473 301.005985 84.139273 
C 301.790785 84.924073 302.855351 85.365031 303.965226 85.365031 
L 303.965226 85.365031 
z
" clip-path="url(#pf7961b9984)" style="fill: none; opacity: 0.99; stroke-dasharray: 3.7,1.6; stroke-dashoffset: 0; stroke: #008000; stroke-linejoin: miter"/>
   </g>
   <g id="matplotlib.axis_1">
    <g id="xtick_1">
     <g id="line2d_1">
      <defs>
       <path id="ma90317db5d" d="M 0 0 
L 0 3.5 
" style="stroke: #000000; stroke-width: 0.8"/>
      </defs>
      <g>
       <use xlink:href="#ma90317db5d" x="45" y="121.545" style="stroke: #000000; stroke-width: 0.8"/>
      </g>
     </g>
     <g id="text_1">
      <!-- 0 -->
      <g transform="translate(41.107344 138.565937)scale(0.14 -0.14)">
       <defs>
        <path id="ArialMT-30" d="M 266 2259 
Q 266 3072 433 3567 
Q 600 4063 929 4331 
Q 1259 4600 1759 4600 
Q 2128 4600 2406 4451 
Q 2684 4303 2865 4023 
Q 3047 3744 3150 3342 
Q 3253 2941 3253 2259 
Q 3253 1453 3087 958 
Q 2922 463 2592 192 
Q 2263 -78 1759 -78 
Q 1097 -78 719 397 
Q 266 969 266 2259 
z
M 844 2259 
Q 844 1131 1108 757 
Q 1372 384 1759 384 
Q 2147 384 2411 759 
Q 2675 1134 2675 2259 
Q 2675 3391 2411 3762 
Q 2147 4134 1753 4134 
Q 1366 4134 1134 3806 
Q 844 3388 844 2259 
z
" transform="scale(0.015625)"/>
       </defs>
       <use xlink:href="#ArialMT-30"/>
      </g>
     </g>
    </g>
    <g id="xtick_2">
     <g id="line2d_2">
      <g>
       <use xlink:href="#ma90317db5d" x="324" y="121.545" style="stroke: #000000; stroke-width: 0.8"/>
      </g>
     </g>
     <g id="text_2">
      <!-- 400 -->
      <g transform="translate(312.322031 138.565937)scale(0.14 -0.14)">
       <defs>
        <path id="ArialMT-34" d="M 2069 0 
L 2069 1097 
L 81 1097 
L 81 1613 
L 2172 4581 
L 2631 4581 
L 2631 1613 
L 3250 1613 
L 3250 1097 
L 2631 1097 
L 2631 0 
L 2069 0 
z
M 2069 1613 
L 2069 3678 
L 634 1613 
L 2069 1613 
z
" transform="scale(0.015625)"/>
       </defs>
       <use xlink:href="#ArialMT-34"/>
       <use xlink:href="#ArialMT-30" x="55.615234"/>
       <use xlink:href="#ArialMT-30" x="111.230469"/>
      </g>
     </g>
    </g>
    <g id="text_3">
     <!-- $X$ (nm) -->
     <g transform="translate(163.36 141.568437)scale(0.14 -0.14)">
      <defs>
       <path id="DejaVuSans-Oblique-58" d="M 878 4666 
L 1516 4666 
L 2316 2981 
L 3763 4666 
L 4500 4666 
L 2578 2438 
L 3738 0 
L 3103 0 
L 2163 1966 
L 459 0 
L -275 0 
L 1906 2509 
L 878 4666 
z
" transform="scale(0.015625)"/>
       <path id="ArialMT-20" transform="scale(0.015625)"/>
       <path id="ArialMT-28" d="M 1497 -1347 
Q 1031 -759 709 28 
Q 388 816 388 1659 
Q 388 2403 628 3084 
Q 909 3875 1497 4659 
L 1900 4659 
Q 1522 4009 1400 3731 
Q 1209 3300 1100 2831 
Q 966 2247 966 1656 
Q 966 153 1900 -1347 
L 1497 -1347 
z
" transform="scale(0.015625)"/>
       <path id="ArialMT-6e" d="M 422 0 
L 422 3319 
L 928 3319 
L 928 2847 
Q 1294 3394 1984 3394 
Q 2284 3394 2536 3286 
Q 2788 3178 2913 3003 
Q 3038 2828 3088 2588 
Q 3119 2431 3119 2041 
L 3119 0 
L 2556 0 
L 2556 2019 
Q 2556 2363 2490 2533 
Q 2425 2703 2258 2804 
Q 2091 2906 1866 2906 
Q 1506 2906 1245 2678 
Q 984 2450 984 1813 
L 984 0 
L 422 0 
z
" transform="scale(0.015625)"/>
       <path id="ArialMT-6d" d="M 422 0 
L 422 3319 
L 925 3319 
L 925 2853 
Q 1081 3097 1340 3245 
Q 1600 3394 1931 3394 
Q 2300 3394 2536 3241 
Q 2772 3088 2869 2813 
Q 3263 3394 3894 3394 
Q 4388 3394 4653 3120 
Q 4919 2847 4919 2278 
L 4919 0 
L 4359 0 
L 4359 2091 
Q 4359 2428 4304 2576 
Q 4250 2725 4106 2815 
Q 3963 2906 3769 2906 
Q 3419 2906 3187 2673 
Q 2956 2441 2956 1928 
L 2956 0 
L 2394 0 
L 2394 2156 
Q 2394 2531 2256 2718 
Q 2119 2906 1806 2906 
Q 1569 2906 1367 2781 
Q 1166 2656 1075 2415 
Q 984 2175 984 1722 
L 984 0 
L 422 0 
z
" transform="scale(0.015625)"/>
       <path id="ArialMT-29" d="M 791 -1347 
L 388 -1347 
Q 1322 153 1322 1656 
Q 1322 2244 1188 2822 
Q 1081 3291 891 3722 
Q 769 4003 388 4659 
L 791 4659 
Q 1378 3875 1659 3084 
Q 1900 2403 1900 1659 
Q 1900 816 1576 28 
Q 1253 -759 791 -1347 
z
" transform="scale(0.015625)"/>
      </defs>
      <use xlink:href="#DejaVuSans-Oblique-58" transform="translate(0 0.09375)"/>
      <use xlink:href="#ArialMT-20" transform="translate(68.505859 0.09375)"/>
      <use xlink:href="#ArialMT-28" transform="translate(96.289062 0.09375)"/>
      <use xlink:href="#ArialMT-6e" transform="translate(129.589844 0.09375)"/>
      <use xlink:href="#ArialMT-6d" transform="translate(185.205078 0.09375)"/>
      <use xlink:href="#ArialMT-29" transform="translate(268.505859 0.09375)"/>
     </g>
    </g>
   </g>
   <g id="matplotlib.axis_2">
    <g id="ytick_1">
     <g id="line2d_3">
      <defs>
       <path id="m2c9a27d49b" d="M 0 0 
L -3.5 0 
" style="stroke: #000000; stroke-width: 0.8"/>
      </defs>
      <g>
       <use xlink:href="#m2c9a27d49b" x="45" y="121.545" style="stroke: #000000; stroke-width: 0.8"/>
      </g>
     </g>
     <g id="text_4">
      <!-- 0 -->
      <g transform="translate(30.214688 126.555469)scale(0.14 -0.14)">
       <use xlink:href="#ArialMT-30"/>
      </g>
     </g>
    </g>
    <g id="ytick_2">
     <g id="line2d_4">
      <g>
       <use xlink:href="#m2c9a27d49b" x="45" y="23.895" style="stroke: #000000; stroke-width: 0.8"/>
      </g>
     </g>
     <g id="text_5">
      <!-- 140 -->
      <g transform="translate(14.644062 28.905469)scale(0.14 -0.14)">
       <defs>
        <path id="ArialMT-31" d="M 2384 0 
L 1822 0 
L 1822 3584 
Q 1619 3391 1289 3197 
Q 959 3003 697 2906 
L 697 3450 
Q 1169 3672 1522 3987 
Q 1875 4303 2022 4600 
L 2384 4600 
L 2384 0 
z
" transform="scale(0.015625)"/>
       </defs>
       <use xlink:href="#ArialMT-31"/>
       <use xlink:href="#ArialMT-34" x="55.615234"/>
       <use xlink:href="#ArialMT-30" x="111.230469"/>
      </g>
     </g>
    </g>
    <g id="text_6">
     <!-- $Y$ (nm) -->
     <g transform="translate(21.564062 93.37)rotate(-90)scale(0.14 -0.14)">
      <defs>
       <path id="DejaVuSans-Oblique-59" d="M 403 4666 
L 1081 4666 
L 1953 2747 
L 3616 4666 
L 4325 4666 
L 2209 2222 
L 1778 0 
L 1147 0 
L 1575 2222 
L 403 4666 
z
" transform="scale(0.015625)"/>
      </defs>
      <use xlink:href="#DejaVuSans-Oblique-59" transform="translate(0 0.09375)"/>
      <use xlink:href="#ArialMT-20" transform="translate(61.083984 0.09375)"/>
      <use xlink:href="#ArialMT-28" transform="translate(88.867188 0.09375)"/>
      <use xlink:href="#ArialMT-6e" transform="translate(122.167969 0.09375)"/>
      <use xlink:href="#ArialMT-6d" transform="translate(177.783203 0.09375)"/>
      <use xlink:href="#ArialMT-29" transform="translate(261.083984 0.09375)"/>
     </g>
    </g>
   </g>
   <g id="line2d_5">
    <path d="M 72.774239 53.190183 
L 76.019789 53.535696 
L 79.250551 53.903085 
L 82.479432 54.273534 
L 85.707893 54.644542 
L 88.935341 55.016202 
L 92.158079 55.389925 
L 95.362578 55.768163 
L 98.518036 56.147078 
L 101.602162 56.501976 
L 104.661369 56.811073 
L 107.774994 57.105218 
L 110.956626 57.427215 
L 114.172565 57.778941 
L 117.398701 58.144722 
L 120.627334 58.516094 
L 123.858984 58.895329 
L 127.106596 59.302183 
L 130.422111 59.781426 
L 133.897374 60.337105 
L 137.494868 60.83872 
L 141.000021 61.22008 
L 144.342207 61.566326 
L 147.601233 61.924301 
L 150.836163 62.291443 
L 154.065935 62.66152 
L 157.294761 63.032287 
L 160.523399 63.403223 
L 163.751823 63.774354 
L 166.979095 64.146337 
L 170.199994 64.521928 
L 173.391221 64.908618 
L 176.483151 65.309619 
L 179.387276 65.679553 
L 182.161719 65.93574 
L 185.021903 66.105569 
L 188.074908 66.316041 
L 191.25193 66.614736 
L 194.470128 66.964219 
L 197.696936 67.330608 
L 200.923826 67.703343 
L 204.140149 68.094661 
L 207.273144 68.611131 
L 209.965564 69.770771 
L 212.207754 72.127187 
L 215.779358 71.710218 
" clip-path="url(#pf7961b9984)" style="fill: none; stroke-dasharray: 2.88,2.88; stroke-dashoffset: 0; stroke: #0000ff; stroke-width: 1.8"/>
   </g>
   <g id="line2d_6">
    <path d="M 219.804871 73.057596 
L 222.324218 74.412288 
L 226.348502 72.963284 
L 229.726432 72.75618 
L 232.975708 73.045911 
L 236.206838 73.406553 
L 239.434586 73.776461 
L 242.659577 74.14763 
L 245.880351 74.518106 
L 249.097567 74.886233 
L 252.315436 75.252173 
L 255.537537 75.618365 
L 258.763587 75.986485 
L 261.99158 76.356241 
L 265.22016 76.726784 
L 268.448834 77.0976 
L 271.677499 77.468499 
L 274.906154 77.839426 
L 278.134815 78.210375 
L 281.363512 78.581364 
L 284.592302 78.952424 
L 287.821253 79.323563 
L 291.050383 79.694732 
L 294.279586 80.065843 
L 297.508682 80.43687 
L 300.737477 80.80796 
L 303.965226 81.180031 
" clip-path="url(#pf7961b9984)" style="fill: none; stroke-dasharray: 1.8,1.8; stroke-dashoffset: 0; stroke: #008000; stroke-width: 1.8"/>
   </g>
   <g id="patch_25">
    <path d="M 45 121.545 
L 45 23.895 
" style="fill: none; stroke: #000000; stroke-width: 0.8; stroke-linejoin: miter; stroke-linecap: square"/>
   </g>
   <g id="patch_26">
    <path d="M 324 121.545 
L 324 23.895 
" style="fill: none; stroke: #000000; stroke-width: 0.8; stroke-linejoin: miter; stroke-linecap: square"/>
   </g>
   <g id="patch_27">
    <path d="M 45 121.545 
L 324 121.545 
" style="fill: none; stroke: #000000; stroke-width: 0.8; stroke-linejoin: miter; stroke-linecap: square"/>
   </g>
   <g id="patch_28">
    <path d="M 45 23.895 
L 324 23.895 
" style="fill: none; stroke: #000000; stroke-width: 0.8; stroke-linejoin: miter; stroke-linecap: square"/>
   </g>
  </g>
 </g>
 <defs>
  <clipPath id="pf7961b9984">
   <rect x="45" y="23.895" width="279" height="97.65"/>
  </clipPath>
 </defs>
</svg>
