<?xml version="1.0" encoding="utf-8" standalone="no"?>
<!DOCTYPE svg PUBLIC "-//W3C//DTD SVG 1.1//EN"
  "http://www.w3.org/Graphics/SVG/1.1/DTD/svg11.dtd">
<svg xmlns:xlink="http://www.w3.org/1999/xlink" width="360pt" height="216pt" viewBox="0 0 360 216" xmlns="http://www.w3.org/2000/svg" version="1.1">
 <metadata>
  <rdf:RDF xmlns:dc="http://purl.org/dc/elements/1.1/" xmlns:cc="http://creativecommons.org/ns#" xmlns:rdf="http://www.w3.org/1999/02/22-rdf-syntax-ns#">
   <cc:Work>
    <dc:type rdf:resource="http://purl.org/dc/dcmitype/StillImage"/>
    <dc:date>2024-01-28T15:52:30.457952</dc:date>
    <dc:format>image/svg+xml</dc:format>
    <dc:creator>
     <cc:Agent>
      <dc:title>Matplotlib v3.5.3, https://matplotlib.org/</dc:title>
     </cc:Agent>
    </dc:creator>
   </cc:Work>
  </rdf:RDF>
 </metadata>
 <defs>
  <style type="text/css">*{stroke-linejoin: round; stroke-linecap: butt}</style>
 </defs>
 <g id="figure_1">
  <g id="patch_1">
   <path d="M 0 216 
L 360 216 
L 360 0 
L 0 0 
z
" style="fill: #ffffff"/>
  </g>
  <g id="axes_1">
   <g id="patch_2">
    <path d="M 65.99 163.96 
L 344.88 163.96 
L 344.88 15.12 
L 65.99 15.12 
z
" style="fill: #ffffff"/>
   </g>
   <g id="matplotlib.axis_1">
    <g id="xtick_1">
     <g id="line2d_1">
      <defs>
       <path id="m217354e483" d="M 0 0 
L 0 3.5 
" style="stroke: #000000; stroke-width: 0.8"/>
      </defs>
      <g>
       <use xlink:href="#m217354e483" x="78.666818" y="163.96" style="stroke: #000000; stroke-width: 0.8"/>
      </g>
     </g>
     <g id="text_1">
      <!-- 0 -->
      <g transform="translate(74.774162 180.980937)scale(0.14 -0.14)">
       <defs>
        <path id="ArialMT-30" d="M 266 2259 
Q 266 3072 433 3567 
Q 600 4063 929 4331 
Q 1259 4600 1759 4600 
Q 2128 4600 2406 4451 
Q 2684 4303 2865 4023 
Q 3047 3744 3150 3342 
Q 3253 2941 3253 2259 
Q 3253 1453 3087 958 
Q 2922 463 2592 192 
Q 2263 -78 1759 -78 
Q 1097 -78 719 397 
Q 266 969 266 2259 
z
M 844 2259 
Q 844 1131 1108 757 
Q 1372 384 1759 384 
Q 2147 384 2411 759 
Q 2675 1134 2675 2259 
Q 2675 3391 2411 3762 
Q 2147 4134 1753 4134 
Q 1366 4134 1134 3806 
Q 844 3388 844 2259 
z
" transform="scale(0.015625)"/>
       </defs>
       <use xlink:href="#ArialMT-30"/>
      </g>
     </g>
    </g>
    <g id="xtick_2">
     <g id="line2d_2">
      <g>
       <use xlink:href="#m217354e483" x="142.050909" y="163.96" style="stroke: #000000; stroke-width: 0.8"/>
      </g>
     </g>
     <g id="text_2">
      <!-- 2 -->
      <g transform="translate(138.158253 180.980937)scale(0.14 -0.14)">
       <defs>
        <path id="ArialMT-32" d="M 3222 541 
L 3222 0 
L 194 0 
Q 188 203 259 391 
Q 375 700 629 1000 
Q 884 1300 1366 1694 
Q 2113 2306 2375 2664 
Q 2638 3022 2638 3341 
Q 2638 3675 2398 3904 
Q 2159 4134 1775 4134 
Q 1369 4134 1125 3890 
Q 881 3647 878 3216 
L 300 3275 
Q 359 3922 746 4261 
Q 1134 4600 1788 4600 
Q 2447 4600 2831 4234 
Q 3216 3869 3216 3328 
Q 3216 3053 3103 2787 
Q 2991 2522 2730 2228 
Q 2469 1934 1863 1422 
Q 1356 997 1212 845 
Q 1069 694 975 541 
L 3222 541 
z
" transform="scale(0.015625)"/>
       </defs>
       <use xlink:href="#ArialMT-32"/>
      </g>
     </g>
    </g>
    <g id="xtick_3">
     <g id="line2d_3">
      <g>
       <use xlink:href="#m217354e483" x="205.435" y="163.96" style="stroke: #000000; stroke-width: 0.8"/>
      </g>
     </g>
     <g id="text_3">
      <!-- 4 -->
      <g transform="translate(201.542344 180.980937)scale(0.14 -0.14)">
       <defs>
        <path id="ArialMT-34" d="M 2069 0 
L 2069 1097 
L 81 1097 
L 81 1613 
L 2172 4581 
L 2631 4581 
L 2631 1613 
L 3250 1613 
L 3250 1097 
L 2631 1097 
L 2631 0 
L 2069 0 
z
M 2069 1613 
L 2069 3678 
L 634 1613 
L 2069 1613 
z
" transform="scale(0.015625)"/>
       </defs>
       <use xlink:href="#ArialMT-34"/>
      </g>
     </g>
    </g>
    <g id="xtick_4">
     <g id="line2d_4">
      <g>
       <use xlink:href="#m217354e483" x="268.819091" y="163.96" style="stroke: #000000; stroke-width: 0.8"/>
      </g>
     </g>
     <g id="text_4">
      <!-- 6 -->
      <g transform="translate(264.926435 180.980937)scale(0.14 -0.14)">
       <defs>
        <path id="ArialMT-36" d="M 3184 3459 
L 2625 3416 
Q 2550 3747 2413 3897 
Q 2184 4138 1850 4138 
Q 1581 4138 1378 3988 
Q 1113 3794 959 3422 
Q 806 3050 800 2363 
Q 1003 2672 1297 2822 
Q 1591 2972 1913 2972 
Q 2475 2972 2870 2558 
Q 3266 2144 3266 1488 
Q 3266 1056 3080 686 
Q 2894 316 2569 119 
Q 2244 -78 1831 -78 
Q 1128 -78 684 439 
Q 241 956 241 2144 
Q 241 3472 731 4075 
Q 1159 4600 1884 4600 
Q 2425 4600 2770 4297 
Q 3116 3994 3184 3459 
z
M 888 1484 
Q 888 1194 1011 928 
Q 1134 663 1356 523 
Q 1578 384 1822 384 
Q 2178 384 2434 671 
Q 2691 959 2691 1453 
Q 2691 1928 2437 2201 
Q 2184 2475 1800 2475 
Q 1419 2475 1153 2201 
Q 888 1928 888 1484 
z
" transform="scale(0.015625)"/>
       </defs>
       <use xlink:href="#ArialMT-36"/>
      </g>
     </g>
    </g>
    <g id="xtick_5">
     <g id="line2d_5">
      <g>
       <use xlink:href="#m217354e483" x="332.203182" y="163.96" style="stroke: #000000; stroke-width: 0.8"/>
      </g>
     </g>
     <g id="text_5">
      <!-- 8 -->
      <g transform="translate(328.310526 180.980937)scale(0.14 -0.14)">
       <defs>
        <path id="ArialMT-38" d="M 1131 2484 
Q 781 2613 612 2850 
Q 444 3088 444 3419 
Q 444 3919 803 4259 
Q 1163 4600 1759 4600 
Q 2359 4600 2725 4251 
Q 3091 3903 3091 3403 
Q 3091 3084 2923 2848 
Q 2756 2613 2416 2484 
Q 2838 2347 3058 2040 
Q 3278 1734 3278 1309 
Q 3278 722 2862 322 
Q 2447 -78 1769 -78 
Q 1091 -78 675 323 
Q 259 725 259 1325 
Q 259 1772 486 2073 
Q 713 2375 1131 2484 
z
M 1019 3438 
Q 1019 3113 1228 2906 
Q 1438 2700 1772 2700 
Q 2097 2700 2305 2904 
Q 2513 3109 2513 3406 
Q 2513 3716 2298 3927 
Q 2084 4138 1766 4138 
Q 1444 4138 1231 3931 
Q 1019 3725 1019 3438 
z
M 838 1322 
Q 838 1081 952 856 
Q 1066 631 1291 507 
Q 1516 384 1775 384 
Q 2178 384 2440 643 
Q 2703 903 2703 1303 
Q 2703 1709 2433 1975 
Q 2163 2241 1756 2241 
Q 1359 2241 1098 1978 
Q 838 1716 838 1322 
z
" transform="scale(0.015625)"/>
       </defs>
       <use xlink:href="#ArialMT-38"/>
      </g>
     </g>
    </g>
    <g id="text_6">
     <!-- u (m/s) -->
     <g transform="translate(183.660625 197.955)scale(0.14 -0.14)">
      <defs>
       <path id="ArialMT-75" d="M 2597 0 
L 2597 488 
Q 2209 -75 1544 -75 
Q 1250 -75 995 37 
Q 741 150 617 320 
Q 494 491 444 738 
Q 409 903 409 1263 
L 409 3319 
L 972 3319 
L 972 1478 
Q 972 1038 1006 884 
Q 1059 663 1231 536 
Q 1403 409 1656 409 
Q 1909 409 2131 539 
Q 2353 669 2445 892 
Q 2538 1116 2538 1541 
L 2538 3319 
L 3100 3319 
L 3100 0 
L 2597 0 
z
" transform="scale(0.015625)"/>
       <path id="ArialMT-20" transform="scale(0.015625)"/>
       <path id="ArialMT-28" d="M 1497 -1347 
Q 1031 -759 709 28 
Q 388 816 388 1659 
Q 388 2403 628 3084 
Q 909 3875 1497 4659 
L 1900 4659 
Q 1522 4009 1400 3731 
Q 1209 3300 1100 2831 
Q 966 2247 966 1656 
Q 966 153 1900 -1347 
L 1497 -1347 
z
" transform="scale(0.015625)"/>
       <path id="ArialMT-6d" d="M 422 0 
L 422 3319 
L 925 3319 
L 925 2853 
Q 1081 3097 1340 3245 
Q 1600 3394 1931 3394 
Q 2300 3394 2536 3241 
Q 2772 3088 2869 2813 
Q 3263 3394 3894 3394 
Q 4388 3394 4653 3120 
Q 4919 2847 4919 2278 
L 4919 0 
L 4359 0 
L 4359 2091 
Q 4359 2428 4304 2576 
Q 4250 2725 4106 2815 
Q 3963 2906 3769 2906 
Q 3419 2906 3187 2673 
Q 2956 2441 2956 1928 
L 2956 0 
L 2394 0 
L 2394 2156 
Q 2394 2531 2256 2718 
Q 2119 2906 1806 2906 
Q 1569 2906 1367 2781 
Q 1166 2656 1075 2415 
Q 984 2175 984 1722 
L 984 0 
L 422 0 
z
" transform="scale(0.015625)"/>
       <path id="ArialMT-2f" d="M 0 -78 
L 1328 4659 
L 1778 4659 
L 453 -78 
L 0 -78 
z
" transform="scale(0.015625)"/>
       <path id="ArialMT-73" d="M 197 991 
L 753 1078 
Q 800 744 1014 566 
Q 1228 388 1613 388 
Q 2000 388 2187 545 
Q 2375 703 2375 916 
Q 2375 1106 2209 1216 
Q 2094 1291 1634 1406 
Q 1016 1563 777 1677 
Q 538 1791 414 1992 
Q 291 2194 291 2438 
Q 291 2659 392 2848 
Q 494 3038 669 3163 
Q 800 3259 1026 3326 
Q 1253 3394 1513 3394 
Q 1903 3394 2198 3281 
Q 2494 3169 2634 2976 
Q 2775 2784 2828 2463 
L 2278 2388 
Q 2241 2644 2061 2787 
Q 1881 2931 1553 2931 
Q 1166 2931 1000 2803 
Q 834 2675 834 2503 
Q 834 2394 903 2306 
Q 972 2216 1119 2156 
Q 1203 2125 1616 2013 
Q 2213 1853 2448 1751 
Q 2684 1650 2818 1456 
Q 2953 1263 2953 975 
Q 2953 694 2789 445 
Q 2625 197 2315 61 
Q 2006 -75 1616 -75 
Q 969 -75 630 194 
Q 291 463 197 991 
z
" transform="scale(0.015625)"/>
       <path id="ArialMT-29" d="M 791 -1347 
L 388 -1347 
Q 1322 153 1322 1656 
Q 1322 2244 1188 2822 
Q 1081 3291 891 3722 
Q 769 4003 388 4659 
L 791 4659 
Q 1378 3875 1659 3084 
Q 1900 2403 1900 1659 
Q 1900 816 1576 28 
Q 1253 -759 791 -1347 
z
" transform="scale(0.015625)"/>
      </defs>
      <use xlink:href="#ArialMT-75"/>
      <use xlink:href="#ArialMT-20" x="55.615234"/>
      <use xlink:href="#ArialMT-28" x="83.398438"/>
      <use xlink:href="#ArialMT-6d" x="116.699219"/>
      <use xlink:href="#ArialMT-2f" x="200"/>
      <use xlink:href="#ArialMT-73" x="227.783203"/>
      <use xlink:href="#ArialMT-29" x="277.783203"/>
     </g>
    </g>
   </g>
   <g id="matplotlib.axis_2">
    <g id="ytick_1">
     <g id="line2d_6">
      <defs>
       <path id="m1378938a5d" d="M 0 0 
L -3.5 0 
" style="stroke: #000000; stroke-width: 0.8"/>
      </defs>
      <g>
       <use xlink:href="#m1378938a5d" x="65.99" y="160.436479" style="stroke: #000000; stroke-width: 0.8"/>
      </g>
     </g>
     <g id="text_7">
      <!-- 0 -->
      <g transform="translate(51.204688 165.446948)scale(0.14 -0.14)">
       <use xlink:href="#ArialMT-30"/>
      </g>
     </g>
    </g>
    <g id="ytick_2">
     <g id="line2d_7">
      <g>
       <use xlink:href="#m1378938a5d" x="65.99" y="109.514325" style="stroke: #000000; stroke-width: 0.8"/>
      </g>
     </g>
     <g id="text_8">
      <!-- 50 -->
      <g transform="translate(43.419375 114.524794)scale(0.14 -0.14)">
       <defs>
        <path id="ArialMT-35" d="M 266 1200 
L 856 1250 
Q 922 819 1161 601 
Q 1400 384 1738 384 
Q 2144 384 2425 690 
Q 2706 997 2706 1503 
Q 2706 1984 2436 2262 
Q 2166 2541 1728 2541 
Q 1456 2541 1237 2417 
Q 1019 2294 894 2097 
L 366 2166 
L 809 4519 
L 3088 4519 
L 3088 3981 
L 1259 3981 
L 1013 2750 
Q 1425 3038 1878 3038 
Q 2478 3038 2890 2622 
Q 3303 2206 3303 1553 
Q 3303 931 2941 478 
Q 2500 -78 1738 -78 
Q 1113 -78 717 272 
Q 322 622 266 1200 
z
" transform="scale(0.015625)"/>
       </defs>
       <use xlink:href="#ArialMT-35"/>
       <use xlink:href="#ArialMT-30" x="55.615234"/>
      </g>
     </g>
    </g>
    <g id="ytick_3">
     <g id="line2d_8">
      <g>
       <use xlink:href="#m1378938a5d" x="65.99" y="58.592171" style="stroke: #000000; stroke-width: 0.8"/>
      </g>
     </g>
     <g id="text_9">
      <!-- 100 -->
      <g transform="translate(35.634063 63.60264)scale(0.14 -0.14)">
       <defs>
        <path id="ArialMT-31" d="M 2384 0 
L 1822 0 
L 1822 3584 
Q 1619 3391 1289 3197 
Q 959 3003 697 2906 
L 697 3450 
Q 1169 3672 1522 3987 
Q 1875 4303 2022 4600 
L 2384 4600 
L 2384 0 
z
" transform="scale(0.015625)"/>
       </defs>
       <use xlink:href="#ArialMT-31"/>
       <use xlink:href="#ArialMT-30" x="55.615234"/>
       <use xlink:href="#ArialMT-30" x="111.230469"/>
      </g>
     </g>
    </g>
    <g id="text_10">
     <!-- $\left&lt; \tau(0) \right &gt;$ (ns) -->
     <g transform="translate(28.554063 123.14)rotate(-90)scale(0.14 -0.14)">
      <defs>
       <path id="DejaVuSans-27e8" d="M 572 2006 
L 1453 4856 
L 1984 4856 
L 1103 2006 
L 1984 -844 
L 1453 -844 
L 572 2006 
z
" transform="scale(0.015625)"/>
       <path id="DejaVuSans-Oblique-3c4" d="M 2103 638 
Q 2188 488 2525 488 
L 2800 488 
L 2706 0 
L 2363 0 
Q 1800 0 1600 300 
Q 1403 606 1534 1269 
L 1856 2925 
L 541 2925 
L 653 3500 
L 3881 3500 
L 3769 2925 
L 2444 2925 
L 2113 1234 
Q 2025 781 2103 638 
z
" transform="scale(0.015625)"/>
       <path id="DejaVuSans-28" d="M 1984 4856 
Q 1566 4138 1362 3434 
Q 1159 2731 1159 2009 
Q 1159 1288 1364 580 
Q 1569 -128 1984 -844 
L 1484 -844 
Q 1016 -109 783 600 
Q 550 1309 550 2009 
Q 550 2706 781 3412 
Q 1013 4119 1484 4856 
L 1984 4856 
z
" transform="scale(0.015625)"/>
       <path id="DejaVuSans-30" d="M 2034 4250 
Q 1547 4250 1301 3770 
Q 1056 3291 1056 2328 
Q 1056 1369 1301 889 
Q 1547 409 2034 409 
Q 2525 409 2770 889 
Q 3016 1369 3016 2328 
Q 3016 3291 2770 3770 
Q 2525 4250 2034 4250 
z
M 2034 4750 
Q 2819 4750 3233 4129 
Q 3647 3509 3647 2328 
Q 3647 1150 3233 529 
Q 2819 -91 2034 -91 
Q 1250 -91 836 529 
Q 422 1150 422 2328 
Q 422 3509 836 4129 
Q 1250 4750 2034 4750 
z
" transform="scale(0.015625)"/>
       <path id="DejaVuSans-29" d="M 513 4856 
L 1013 4856 
Q 1481 4119 1714 3412 
Q 1947 2706 1947 2009 
Q 1947 1309 1714 600 
Q 1481 -109 1013 -844 
L 513 -844 
Q 928 -128 1133 580 
Q 1338 1288 1338 2009 
Q 1338 2731 1133 3434 
Q 928 4138 513 4856 
z
" transform="scale(0.015625)"/>
       <path id="DejaVuSans-27e9" d="M 1925 2006 
L 1044 -844 
L 513 -844 
L 1394 2006 
L 513 4856 
L 1044 4856 
L 1925 2006 
z
" transform="scale(0.015625)"/>
       <path id="ArialMT-6e" d="M 422 0 
L 422 3319 
L 928 3319 
L 928 2847 
Q 1294 3394 1984 3394 
Q 2284 3394 2536 3286 
Q 2788 3178 2913 3003 
Q 3038 2828 3088 2588 
Q 3119 2431 3119 2041 
L 3119 0 
L 2556 0 
L 2556 2019 
Q 2556 2363 2490 2533 
Q 2425 2703 2258 2804 
Q 2091 2906 1866 2906 
Q 1506 2906 1245 2678 
Q 984 2450 984 1813 
L 984 0 
L 422 0 
z
" transform="scale(0.015625)"/>
      </defs>
      <use xlink:href="#DejaVuSans-27e8" transform="translate(0 0.125)"/>
      <use xlink:href="#DejaVuSans-Oblique-3c4" transform="translate(39.013672 0.125)"/>
      <use xlink:href="#DejaVuSans-28" transform="translate(99.21875 0.125)"/>
      <use xlink:href="#DejaVuSans-30" transform="translate(138.232422 0.125)"/>
      <use xlink:href="#DejaVuSans-29" transform="translate(201.855469 0.125)"/>
      <use xlink:href="#DejaVuSans-27e9" transform="translate(240.869141 0.125)"/>
      <use xlink:href="#ArialMT-20" transform="translate(279.882812 0.125)"/>
      <use xlink:href="#ArialMT-28" transform="translate(307.666016 0.125)"/>
      <use xlink:href="#ArialMT-6e" transform="translate(340.966797 0.125)"/>
      <use xlink:href="#ArialMT-73" transform="translate(396.582031 0.125)"/>
      <use xlink:href="#ArialMT-29" transform="translate(446.582031 0.125)"/>
     </g>
    </g>
   </g>
   <g id="line2d_9">
    <path d="M 78.666818 21.885455 
L 104.020455 69.813333 
L 129.374091 121.380796 
L 154.727727 140.978187 
L 180.081364 146.940946 
L 205.435 150.198059 
L 230.788636 152.822534 
L 256.142273 154.748048 
L 281.495909 155.9423 
L 306.849545 156.6591 
L 332.203182 157.138484 
" clip-path="url(#p42e2abb424)" style="fill: none; stroke: #4c72b0; stroke-width: 1.5; stroke-linecap: square"/>
    <defs>
     <path id="m8c9fb2254f" d="M 0 2.8 
C 0.742569 2.8 1.454824 2.504974 1.979899 1.979899 
C 2.504974 1.454824 2.8 0.742569 2.8 0 
C 2.8 -0.742569 2.504974 -1.454824 1.979899 -1.979899 
C 1.454824 -2.504974 0.742569 -2.8 0 -2.8 
C -0.742569 -2.8 -1.454824 -2.504974 -1.979899 -1.979899 
C -2.504974 -1.454824 -2.8 -0.742569 -2.8 0 
C -2.8 0.742569 -2.504974 1.454824 -1.979899 1.979899 
C -1.454824 2.504974 -0.742569 2.8 0 2.8 
z
" style="stroke: #4c72b0"/>
    </defs>
    <g clip-path="url(#p42e2abb424)">
     <use xlink:href="#m8c9fb2254f" x="78.666818" y="21.885455" style="fill: #4c72b0; stroke: #4c72b0"/>
     <use xlink:href="#m8c9fb2254f" x="104.020455" y="69.813333" style="fill: #4c72b0; stroke: #4c72b0"/>
     <use xlink:href="#m8c9fb2254f" x="129.374091" y="121.380796" style="fill: #4c72b0; stroke: #4c72b0"/>
     <use xlink:href="#m8c9fb2254f" x="154.727727" y="140.978187" style="fill: #4c72b0; stroke: #4c72b0"/>
     <use xlink:href="#m8c9fb2254f" x="180.081364" y="146.940946" style="fill: #4c72b0; stroke: #4c72b0"/>
     <use xlink:href="#m8c9fb2254f" x="205.435" y="150.198059" style="fill: #4c72b0; stroke: #4c72b0"/>
     <use xlink:href="#m8c9fb2254f" x="230.788636" y="152.822534" style="fill: #4c72b0; stroke: #4c72b0"/>
     <use xlink:href="#m8c9fb2254f" x="256.142273" y="154.748048" style="fill: #4c72b0; stroke: #4c72b0"/>
     <use xlink:href="#m8c9fb2254f" x="281.495909" y="155.9423" style="fill: #4c72b0; stroke: #4c72b0"/>
     <use xlink:href="#m8c9fb2254f" x="306.849545" y="156.6591" style="fill: #4c72b0; stroke: #4c72b0"/>
     <use xlink:href="#m8c9fb2254f" x="332.203182" y="157.138484" style="fill: #4c72b0; stroke: #4c72b0"/>
    </g>
   </g>
   <g id="line2d_10">
    <path d="M 78.666818 105.294023 
L 104.020455 118.436168 
L 129.374091 135.728876 
L 154.727727 145.004395 
L 180.081364 149.426582 
L 205.435 151.982114 
L 230.788636 153.793222 
L 256.142273 155.115017 
L 281.495909 156.044774 
L 306.849545 156.692431 
L 332.203182 157.158377 
" clip-path="url(#p42e2abb424)" style="fill: none; stroke: #55a868; stroke-width: 1.5; stroke-linecap: square"/>
    <defs>
     <path id="m8fa4c342de" d="M -2.8 2.8 
L 2.8 2.8 
L 2.8 -2.8 
L -2.8 -2.8 
z
" style="stroke: #55a868; stroke-linejoin: miter"/>
    </defs>
    <g clip-path="url(#p42e2abb424)">
     <use xlink:href="#m8fa4c342de" x="78.666818" y="105.294023" style="fill: #55a868; stroke: #55a868; stroke-linejoin: miter"/>
     <use xlink:href="#m8fa4c342de" x="104.020455" y="118.436168" style="fill: #55a868; stroke: #55a868; stroke-linejoin: miter"/>
     <use xlink:href="#m8fa4c342de" x="129.374091" y="135.728876" style="fill: #55a868; stroke: #55a868; stroke-linejoin: miter"/>
     <use xlink:href="#m8fa4c342de" x="154.727727" y="145.004395" style="fill: #55a868; stroke: #55a868; stroke-linejoin: miter"/>
     <use xlink:href="#m8fa4c342de" x="180.081364" y="149.426582" style="fill: #55a868; stroke: #55a868; stroke-linejoin: miter"/>
     <use xlink:href="#m8fa4c342de" x="205.435" y="151.982114" style="fill: #55a868; stroke: #55a868; stroke-linejoin: miter"/>
     <use xlink:href="#m8fa4c342de" x="230.788636" y="153.793222" style="fill: #55a868; stroke: #55a868; stroke-linejoin: miter"/>
     <use xlink:href="#m8fa4c342de" x="256.142273" y="155.115017" style="fill: #55a868; stroke: #55a868; stroke-linejoin: miter"/>
     <use xlink:href="#m8fa4c342de" x="281.495909" y="156.044774" style="fill: #55a868; stroke: #55a868; stroke-linejoin: miter"/>
     <use xlink:href="#m8fa4c342de" x="306.849545" y="156.692431" style="fill: #55a868; stroke: #55a868; stroke-linejoin: miter"/>
     <use xlink:href="#m8fa4c342de" x="332.203182" y="157.158377" style="fill: #55a868; stroke: #55a868; stroke-linejoin: miter"/>
    </g>
   </g>
   <g id="line2d_11">
    <path d="M 78.666818 125.526843 
L 104.020455 131.776494 
L 129.374091 141.212402 
L 154.727727 147.266923 
L 180.081364 150.703007 
L 205.435 152.834621 
L 230.788636 154.312522 
L 256.142273 155.387328 
L 281.495909 156.174898 
L 306.849545 156.756363 
L 332.203182 157.194545 
" clip-path="url(#p42e2abb424)" style="fill: none; stroke: #c44e52; stroke-width: 1.5; stroke-linecap: square"/>
    <defs>
     <path id="m352a8cf63f" d="M 0 -2.8 
L -2.8 2.8 
L 2.8 2.8 
z
" style="stroke: #c44e52; stroke-linejoin: miter"/>
    </defs>
    <g clip-path="url(#p42e2abb424)">
     <use xlink:href="#m352a8cf63f" x="78.666818" y="125.526843" style="fill: #c44e52; stroke: #c44e52; stroke-linejoin: miter"/>
     <use xlink:href="#m352a8cf63f" x="104.020455" y="131.776494" style="fill: #c44e52; stroke: #c44e52; stroke-linejoin: miter"/>
     <use xlink:href="#m352a8cf63f" x="129.374091" y="141.212402" style="fill: #c44e52; stroke: #c44e52; stroke-linejoin: miter"/>
     <use xlink:href="#m352a8cf63f" x="154.727727" y="147.266923" style="fill: #c44e52; stroke: #c44e52; stroke-linejoin: miter"/>
     <use xlink:href="#m352a8cf63f" x="180.081364" y="150.703007" style="fill: #c44e52; stroke: #c44e52; stroke-linejoin: miter"/>
     <use xlink:href="#m352a8cf63f" x="205.435" y="152.834621" style="fill: #c44e52; stroke: #c44e52; stroke-linejoin: miter"/>
     <use xlink:href="#m352a8cf63f" x="230.788636" y="154.312522" style="fill: #c44e52; stroke: #c44e52; stroke-linejoin: miter"/>
     <use xlink:href="#m352a8cf63f" x="256.142273" y="155.387328" style="fill: #c44e52; stroke: #c44e52; stroke-linejoin: miter"/>
     <use xlink:href="#m352a8cf63f" x="281.495909" y="156.174898" style="fill: #c44e52; stroke: #c44e52; stroke-linejoin: miter"/>
     <use xlink:href="#m352a8cf63f" x="306.849545" y="156.756363" style="fill: #c44e52; stroke: #c44e52; stroke-linejoin: miter"/>
     <use xlink:href="#m352a8cf63f" x="332.203182" y="157.194545" style="fill: #c44e52; stroke: #c44e52; stroke-linejoin: miter"/>
    </g>
   </g>
   <g id="patch_3">
    <path d="M 65.99 163.96 
L 65.99 15.12 
" style="fill: none; stroke: #000000; stroke-width: 0.8; stroke-linejoin: miter; stroke-linecap: square"/>
   </g>
   <g id="patch_4">
    <path d="M 344.88 163.96 
L 344.88 15.12 
" style="fill: none; stroke: #000000; stroke-width: 0.8; stroke-linejoin: miter; stroke-linecap: square"/>
   </g>
   <g id="patch_5">
    <path d="M 65.99 163.96 
L 344.88 163.96 
" style="fill: none; stroke: #000000; stroke-width: 0.8; stroke-linejoin: miter; stroke-linecap: square"/>
   </g>
   <g id="patch_6">
    <path d="M 65.99 15.12 
L 344.88 15.12 
" style="fill: none; stroke: #000000; stroke-width: 0.8; stroke-linejoin: miter; stroke-linecap: square"/>
   </g>
   <g id="legend_1">
    <g id="patch_7">
     <path d="M 240.857812 85.730313 
L 335.08 85.730313 
Q 337.88 85.730313 337.88 82.930313 
L 337.88 24.92 
Q 337.88 22.12 335.08 22.12 
L 240.857812 22.12 
Q 238.057812 22.12 238.057812 24.92 
L 238.057812 82.930313 
Q 238.057812 85.730313 240.857812 85.730313 
z
" style="fill: #ffffff; opacity: 0.8; stroke: #cccccc; stroke-linejoin: miter"/>
    </g>
    <g id="line2d_12">
     <path d="M 243.657812 32.840938 
L 257.657812 32.840938 
L 271.657812 32.840938 
" style="fill: none; stroke: #4c72b0; stroke-width: 1.5; stroke-linecap: square"/>
     <g>
      <use xlink:href="#m8c9fb2254f" x="257.657812" y="32.840938" style="fill: #4c72b0; stroke: #4c72b0"/>
     </g>
    </g>
    <g id="text_11">
     <!-- T=100K -->
     <g transform="translate(282.857812 37.740938)scale(0.14 -0.14)">
      <defs>
       <path id="ArialMT-54" d="M 1659 0 
L 1659 4041 
L 150 4041 
L 150 4581 
L 3781 4581 
L 3781 4041 
L 2266 4041 
L 2266 0 
L 1659 0 
z
" transform="scale(0.015625)"/>
       <path id="ArialMT-3d" d="M 3381 2694 
L 356 2694 
L 356 3219 
L 3381 3219 
L 3381 2694 
z
M 3381 1303 
L 356 1303 
L 356 1828 
L 3381 1828 
L 3381 1303 
z
" transform="scale(0.015625)"/>
       <path id="ArialMT-4b" d="M 469 0 
L 469 4581 
L 1075 4581 
L 1075 2309 
L 3350 4581 
L 4172 4581 
L 2250 2725 
L 4256 0 
L 3456 0 
L 1825 2319 
L 1075 1588 
L 1075 0 
L 469 0 
z
" transform="scale(0.015625)"/>
      </defs>
      <use xlink:href="#ArialMT-54"/>
      <use xlink:href="#ArialMT-3d" x="61.083984"/>
      <use xlink:href="#ArialMT-31" x="119.482422"/>
      <use xlink:href="#ArialMT-30" x="175.097656"/>
      <use xlink:href="#ArialMT-30" x="230.712891"/>
      <use xlink:href="#ArialMT-4b" x="286.328125"/>
     </g>
    </g>
    <g id="line2d_13">
     <path d="M 243.657812 52.644375 
L 257.657812 52.644375 
L 271.657812 52.644375 
" style="fill: none; stroke: #55a868; stroke-width: 1.5; stroke-linecap: square"/>
     <g>
      <use xlink:href="#m8fa4c342de" x="257.657812" y="52.644375" style="fill: #55a868; stroke: #55a868; stroke-linejoin: miter"/>
     </g>
    </g>
    <g id="text_12">
     <!-- T=200K -->
     <g transform="translate(282.857812 57.544375)scale(0.14 -0.14)">
      <use xlink:href="#ArialMT-54"/>
      <use xlink:href="#ArialMT-3d" x="61.083984"/>
      <use xlink:href="#ArialMT-32" x="119.482422"/>
      <use xlink:href="#ArialMT-30" x="175.097656"/>
      <use xlink:href="#ArialMT-30" x="230.712891"/>
      <use xlink:href="#ArialMT-4b" x="286.328125"/>
     </g>
    </g>
    <g id="line2d_14">
     <path d="M 243.657812 72.447813 
L 257.657812 72.447813 
L 271.657812 72.447813 
" style="fill: none; stroke: #c44e52; stroke-width: 1.5; stroke-linecap: square"/>
     <g>
      <use xlink:href="#m352a8cf63f" x="257.657812" y="72.447813" style="fill: #c44e52; stroke: #c44e52; stroke-linejoin: miter"/>
     </g>
    </g>
    <g id="text_13">
     <!-- T=300K -->
     <g transform="translate(282.857812 77.347813)scale(0.14 -0.14)">
      <defs>
       <path id="ArialMT-33" d="M 269 1209 
L 831 1284 
Q 928 806 1161 595 
Q 1394 384 1728 384 
Q 2125 384 2398 659 
Q 2672 934 2672 1341 
Q 2672 1728 2419 1979 
Q 2166 2231 1775 2231 
Q 1616 2231 1378 2169 
L 1441 2663 
Q 1497 2656 1531 2656 
Q 1891 2656 2178 2843 
Q 2466 3031 2466 3422 
Q 2466 3731 2256 3934 
Q 2047 4138 1716 4138 
Q 1388 4138 1169 3931 
Q 950 3725 888 3313 
L 325 3413 
Q 428 3978 793 4289 
Q 1159 4600 1703 4600 
Q 2078 4600 2393 4439 
Q 2709 4278 2876 4000 
Q 3044 3722 3044 3409 
Q 3044 3113 2884 2869 
Q 2725 2625 2413 2481 
Q 2819 2388 3044 2092 
Q 3269 1797 3269 1353 
Q 3269 753 2831 336 
Q 2394 -81 1725 -81 
Q 1122 -81 723 278 
Q 325 638 269 1209 
z
" transform="scale(0.015625)"/>
      </defs>
      <use xlink:href="#ArialMT-54"/>
      <use xlink:href="#ArialMT-3d" x="61.083984"/>
      <use xlink:href="#ArialMT-33" x="119.482422"/>
      <use xlink:href="#ArialMT-30" x="175.097656"/>
      <use xlink:href="#ArialMT-30" x="230.712891"/>
      <use xlink:href="#ArialMT-4b" x="286.328125"/>
     </g>
    </g>
   </g>
  </g>
 </g>
 <defs>
  <clipPath id="p42e2abb424">
   <rect x="65.99" y="15.12" width="278.89" height="148.84"/>
  </clipPath>
 </defs>
</svg>
