<?xml version="1.0" encoding="utf-8" standalone="no"?>
<!DOCTYPE svg PUBLIC "-//W3C//DTD SVG 1.1//EN"
  "http://www.w3.org/Graphics/SVG/1.1/DTD/svg11.dtd">
<svg xmlns:xlink="http://www.w3.org/1999/xlink" width="288pt" height="288pt" viewBox="0 0 288 288" xmlns="http://www.w3.org/2000/svg" version="1.1">
 <metadata>
  <rdf:RDF xmlns:dc="http://purl.org/dc/elements/1.1/" xmlns:cc="http://creativecommons.org/ns#" xmlns:rdf="http://www.w3.org/1999/02/22-rdf-syntax-ns#">
   <cc:Work>
    <dc:type rdf:resource="http://purl.org/dc/dcmitype/StillImage"/>
    <dc:date>2024-01-28T17:49:12.082755</dc:date>
    <dc:format>image/svg+xml</dc:format>
    <dc:creator>
     <cc:Agent>
      <dc:title>Matplotlib v3.5.3, https://matplotlib.org/</dc:title>
     </cc:Agent>
    </dc:creator>
   </cc:Work>
  </rdf:RDF>
 </metadata>
 <defs>
  <style type="text/css">*{stroke-linejoin: round; stroke-linecap: butt}</style>
 </defs>
 <g id="figure_1">
  <g id="patch_1">
   <path d="M 0 288 
L 288 288 
L 288 0 
L 0 0 
z
" style="fill: #ffffff"/>
  </g>
  <g id="axes_1">
   <g id="patch_2">
    <path d="M 71.345 221.56 
L 266.985 221.56 
L 266.985 25.92 
L 71.345 25.92 
z
" style="fill: #ffffff"/>
   </g>
   <g id="PathCollection_1">
    <defs>
     <path id="md75f21dc4c" d="M 0 1.732051 
C 0.459345 1.732051 0.899939 1.549551 1.224745 1.224745 
C 1.549551 0.899939 1.732051 0.459345 1.732051 0 
C 1.732051 -0.459345 1.549551 -0.899939 1.224745 -1.224745 
C 0.899939 -1.549551 0.459345 -1.732051 0 -1.732051 
C -0.459345 -1.732051 -0.899939 -1.549551 -1.224745 -1.224745 
C -1.549551 -0.899939 -1.732051 -0.459345 -1.732051 0 
C -1.732051 0.459345 -1.549551 0.899939 -1.224745 1.224745 
C -0.899939 1.549551 -0.459345 1.732051 0 1.732051 
z
" style="stroke: #000000"/>
    </defs>
    <g clip-path="url(#pec47ea3e61)">
     <use xlink:href="#md75f21dc4c" x="169.972444" y="132.150871" style="stroke: #000000"/>
    </g>
   </g>
   <g id="matplotlib.axis_1">
    <g id="xtick_1">
     <g id="line2d_1">
      <defs>
       <path id="mf610e2a289" d="M 0 0 
L 0 3.5 
" style="stroke: #000000; stroke-width: 0.8"/>
      </defs>
      <g>
       <use xlink:href="#mf610e2a289" x="103.951667" y="221.56" style="stroke: #000000; stroke-width: 0.8"/>
      </g>
     </g>
     <g id="text_1">
      <!-- −2 -->
      <g transform="translate(93.69026 241.444063)scale(0.18 -0.18)">
       <defs>
        <path id="ArialMT-2212" d="M 3381 1997 
L 356 1997 
L 356 2522 
L 3381 2522 
L 3381 1997 
z
" transform="scale(0.015625)"/>
        <path id="ArialMT-32" d="M 3222 541 
L 3222 0 
L 194 0 
Q 188 203 259 391 
Q 375 700 629 1000 
Q 884 1300 1366 1694 
Q 2113 2306 2375 2664 
Q 2638 3022 2638 3341 
Q 2638 3675 2398 3904 
Q 2159 4134 1775 4134 
Q 1369 4134 1125 3890 
Q 881 3647 878 3216 
L 300 3275 
Q 359 3922 746 4261 
Q 1134 4600 1788 4600 
Q 2447 4600 2831 4234 
Q 3216 3869 3216 3328 
Q 3216 3053 3103 2787 
Q 2991 2522 2730 2228 
Q 2469 1934 1863 1422 
Q 1356 997 1212 845 
Q 1069 694 975 541 
L 3222 541 
z
" transform="scale(0.015625)"/>
       </defs>
       <use xlink:href="#ArialMT-2212"/>
       <use xlink:href="#ArialMT-32" x="58.398438"/>
      </g>
     </g>
    </g>
    <g id="xtick_2">
     <g id="line2d_2">
      <g>
       <use xlink:href="#mf610e2a289" x="169.165" y="221.56" style="stroke: #000000; stroke-width: 0.8"/>
      </g>
     </g>
     <g id="text_2">
      <!-- 0 -->
      <g transform="translate(164.160156 241.444063)scale(0.18 -0.18)">
       <defs>
        <path id="ArialMT-30" d="M 266 2259 
Q 266 3072 433 3567 
Q 600 4063 929 4331 
Q 1259 4600 1759 4600 
Q 2128 4600 2406 4451 
Q 2684 4303 2865 4023 
Q 3047 3744 3150 3342 
Q 3253 2941 3253 2259 
Q 3253 1453 3087 958 
Q 2922 463 2592 192 
Q 2263 -78 1759 -78 
Q 1097 -78 719 397 
Q 266 969 266 2259 
z
M 844 2259 
Q 844 1131 1108 757 
Q 1372 384 1759 384 
Q 2147 384 2411 759 
Q 2675 1134 2675 2259 
Q 2675 3391 2411 3762 
Q 2147 4134 1753 4134 
Q 1366 4134 1134 3806 
Q 844 3388 844 2259 
z
" transform="scale(0.015625)"/>
       </defs>
       <use xlink:href="#ArialMT-30"/>
      </g>
     </g>
    </g>
    <g id="xtick_3">
     <g id="line2d_3">
      <g>
       <use xlink:href="#mf610e2a289" x="234.378333" y="221.56" style="stroke: #000000; stroke-width: 0.8"/>
      </g>
     </g>
     <g id="text_3">
      <!-- 2 -->
      <g transform="translate(229.37349 241.444063)scale(0.18 -0.18)">
       <use xlink:href="#ArialMT-32"/>
      </g>
     </g>
    </g>
    <g id="text_4">
     <!-- $x$ (nm) -->
     <g transform="translate(142.795 262.161563)scale(0.18 -0.18)">
      <defs>
       <path id="DejaVuSans-Oblique-78" d="M 3841 3500 
L 2234 1784 
L 3219 0 
L 2559 0 
L 1819 1388 
L 531 0 
L -166 0 
L 1556 1844 
L 641 3500 
L 1300 3500 
L 1972 2234 
L 3144 3500 
L 3841 3500 
z
" transform="scale(0.015625)"/>
       <path id="ArialMT-20" transform="scale(0.015625)"/>
       <path id="ArialMT-28" d="M 1497 -1347 
Q 1031 -759 709 28 
Q 388 816 388 1659 
Q 388 2403 628 3084 
Q 909 3875 1497 4659 
L 1900 4659 
Q 1522 4009 1400 3731 
Q 1209 3300 1100 2831 
Q 966 2247 966 1656 
Q 966 153 1900 -1347 
L 1497 -1347 
z
" transform="scale(0.015625)"/>
       <path id="ArialMT-6e" d="M 422 0 
L 422 3319 
L 928 3319 
L 928 2847 
Q 1294 3394 1984 3394 
Q 2284 3394 2536 3286 
Q 2788 3178 2913 3003 
Q 3038 2828 3088 2588 
Q 3119 2431 3119 2041 
L 3119 0 
L 2556 0 
L 2556 2019 
Q 2556 2363 2490 2533 
Q 2425 2703 2258 2804 
Q 2091 2906 1866 2906 
Q 1506 2906 1245 2678 
Q 984 2450 984 1813 
L 984 0 
L 422 0 
z
" transform="scale(0.015625)"/>
       <path id="ArialMT-6d" d="M 422 0 
L 422 3319 
L 925 3319 
L 925 2853 
Q 1081 3097 1340 3245 
Q 1600 3394 1931 3394 
Q 2300 3394 2536 3241 
Q 2772 3088 2869 2813 
Q 3263 3394 3894 3394 
Q 4388 3394 4653 3120 
Q 4919 2847 4919 2278 
L 4919 0 
L 4359 0 
L 4359 2091 
Q 4359 2428 4304 2576 
Q 4250 2725 4106 2815 
Q 3963 2906 3769 2906 
Q 3419 2906 3187 2673 
Q 2956 2441 2956 1928 
L 2956 0 
L 2394 0 
L 2394 2156 
Q 2394 2531 2256 2718 
Q 2119 2906 1806 2906 
Q 1569 2906 1367 2781 
Q 1166 2656 1075 2415 
Q 984 2175 984 1722 
L 984 0 
L 422 0 
z
" transform="scale(0.015625)"/>
       <path id="ArialMT-29" d="M 791 -1347 
L 388 -1347 
Q 1322 153 1322 1656 
Q 1322 2244 1188 2822 
Q 1081 3291 891 3722 
Q 769 4003 388 4659 
L 791 4659 
Q 1378 3875 1659 3084 
Q 1900 2403 1900 1659 
Q 1900 816 1576 28 
Q 1253 -759 791 -1347 
z
" transform="scale(0.015625)"/>
      </defs>
      <use xlink:href="#DejaVuSans-Oblique-78" transform="translate(0 0.203125)"/>
      <use xlink:href="#ArialMT-20" transform="translate(59.179688 0.203125)"/>
      <use xlink:href="#ArialMT-28" transform="translate(86.962891 0.203125)"/>
      <use xlink:href="#ArialMT-6e" transform="translate(120.263672 0.203125)"/>
      <use xlink:href="#ArialMT-6d" transform="translate(175.878906 0.203125)"/>
      <use xlink:href="#ArialMT-29" transform="translate(259.179688 0.203125)"/>
     </g>
    </g>
   </g>
   <g id="matplotlib.axis_2">
    <g id="ytick_1">
     <g id="line2d_4">
      <defs>
       <path id="m93fbe93ba1" d="M 0 0 
L -3.5 0 
" style="stroke: #000000; stroke-width: 0.8"/>
      </defs>
      <g>
       <use xlink:href="#m93fbe93ba1" x="71.345" y="188.953333" style="stroke: #000000; stroke-width: 0.8"/>
      </g>
     </g>
     <g id="text_5">
      <!-- −2 -->
      <g transform="translate(43.822187 195.395365)scale(0.18 -0.18)">
       <use xlink:href="#ArialMT-2212"/>
       <use xlink:href="#ArialMT-32" x="58.398438"/>
      </g>
     </g>
    </g>
    <g id="ytick_2">
     <g id="line2d_5">
      <g>
       <use xlink:href="#m93fbe93ba1" x="71.345" y="123.74" style="stroke: #000000; stroke-width: 0.8"/>
      </g>
     </g>
     <g id="text_6">
      <!-- 0 -->
      <g transform="translate(54.335313 130.182031)scale(0.18 -0.18)">
       <use xlink:href="#ArialMT-30"/>
      </g>
     </g>
    </g>
    <g id="ytick_3">
     <g id="line2d_6">
      <g>
       <use xlink:href="#m93fbe93ba1" x="71.345" y="58.526667" style="stroke: #000000; stroke-width: 0.8"/>
      </g>
     </g>
     <g id="text_7">
      <!-- 2 -->
      <g transform="translate(54.335313 64.968698)scale(0.18 -0.18)">
       <use xlink:href="#ArialMT-32"/>
      </g>
     </g>
    </g>
    <g id="text_8">
     <!-- $y$ (nm) -->
     <g transform="translate(35.862187 150.11)rotate(-90)scale(0.18 -0.18)">
      <defs>
       <path id="DejaVuSans-Oblique-79" d="M 1588 -325 
Q 1188 -997 936 -1164 
Q 684 -1331 294 -1331 
L -159 -1331 
L -63 -850 
L 269 -850 
Q 509 -850 678 -719 
Q 847 -588 1056 -206 
L 1234 128 
L 459 3500 
L 1069 3500 
L 1650 819 
L 3256 3500 
L 3859 3500 
L 1588 -325 
z
" transform="scale(0.015625)"/>
      </defs>
      <use xlink:href="#DejaVuSans-Oblique-79" transform="translate(0 0.203125)"/>
      <use xlink:href="#ArialMT-20" transform="translate(59.179688 0.203125)"/>
      <use xlink:href="#ArialMT-28" transform="translate(86.962891 0.203125)"/>
      <use xlink:href="#ArialMT-6e" transform="translate(120.263672 0.203125)"/>
      <use xlink:href="#ArialMT-6d" transform="translate(175.878906 0.203125)"/>
      <use xlink:href="#ArialMT-29" transform="translate(259.179688 0.203125)"/>
     </g>
    </g>
   </g>
   <g id="PathCollection_2"/>
   <g id="PathCollection_3">
    <path d="M 71.345 220.081857 
L 107.912363 216.578823 
L 107.912363 216.578823 
" clip-path="url(#pec47ea3e61)" style="fill: none; stroke: #472c7a; stroke-width: 1.4"/>
    <path d="M 131.477889 214.385105 
L 194.5982 208.583327 
L 242.72564 203.641508 
L 266.985 201.300848 
L 266.985 201.300848 
" clip-path="url(#pec47ea3e61)" style="fill: none; stroke: #472c7a; stroke-width: 1.4"/>
   </g>
   <g id="PathCollection_4">
    <path d="M 71.345 191.09979 
L 99.32152 188.533692 
L 108.446496 187.882407 
L 108.446496 187.882407 
" clip-path="url(#pec47ea3e61)" style="fill: none; stroke: #3b528b; stroke-width: 1.4"/>
    <path d="M 132.023043 187.490068 
L 159.57864 188.037337 
L 166.42604 187.82189 
L 172.88216 187.39943 
L 179.33828 186.74898 
L 185.7944 185.870385 
L 192.6418 184.705676 
L 200.27176 183.173189 
L 211.61888 180.633889 
L 223.16164 178.120937 
L 230.7916 176.695593 
L 238.22592 175.536405 
L 246.83408 174.430781 
L 258.76812 173.143253 
L 266.985 172.32758 
L 266.985 172.32758 
" clip-path="url(#pec47ea3e61)" style="fill: none; stroke: #3b528b; stroke-width: 1.4"/>
   </g>
   <g id="PathCollection_5">
    <path d="M 71.345 162.137634 
L 84.45288 161.040859 
L 91.49592 160.660224 
L 96.97384 160.582379 
L 101.6692 160.73818 
L 106.033701 161.10724 
L 107.017984 161.222231 
L 107.017984 161.222231 
" clip-path="url(#pec47ea3e61)" style="fill: none; stroke: #2c728e; stroke-width: 1.4"/>
    <path d="M 130.038909 166.302507 
L 137.8626 168.211509 
L 143.7318 169.413588 
L 149.01408 170.268051 
L 154.10072 170.861063 
L 158.99172 171.205589 
L 163.88272 171.322028 
L 168.57808 171.21566 
L 173.315571 170.88924 
L 177.9688 170.351839 
L 182.66416 169.58862 
L 187.35952 168.600017 
L 192.109725 167.36772 
L 196.75024 165.938394 
L 201.64124 164.196408 
L 206.72788 162.146303 
L 212.59708 159.529366 
L 223.35728 154.41028 
L 229.42212 151.681533 
L 233.92184 149.890627 
L 238.03028 148.483643 
L 242.13872 147.3061 
L 246.4428 146.300035 
L 251.3338 145.388416 
L 257.39864 144.499885 
L 265.81116 143.5159 
L 266.985 143.391211 
L 266.985 143.391211 
" clip-path="url(#pec47ea3e61)" style="fill: none; stroke: #2c728e; stroke-width: 1.4"/>
   </g>
   <g id="PathCollection_6">
    <path d="M 71.345 133.205388 
L 80.1488 132.579327 
L 85.82236 132.38953 
L 90.12644 132.453784 
L 93.8436 132.720951 
L 97.16948 133.174054 
L 100.29972 133.818448 
L 103.434672 134.69584 
L 106.5602 135.804727 
L 109.92557 137.23916 
L 110.460277 137.487005 
L 110.460277 137.487005 
" clip-path="url(#pec47ea3e61)" style="fill: none; stroke: #21918c; stroke-width: 1.4"/>
    <path d="M 126.949199 146.010078 
L 131.0152 147.843855 
L 134.73236 149.280973 
L 138.25388 150.399092 
L 141.57976 151.215869 
L 144.71 151.755094 
L 147.6446 152.041884 
L 150.38356 152.101198 
L 153.12252 151.934794 
L 155.4702 151.584147 
L 157.62224 151.056918 
L 159.591722 150.34704 
L 161.14376 149.559174 
L 162.3176 148.731711 
L 163.10016 147.956956 
L 163.68708 147.073213 
L 163.993274 146.2386 
L 164.102154 145.2604 
L 163.976705 144.08656 
L 163.557171 142.52144 
L 161.954011 137.23916 
L 161.644171 135.28276 
L 161.565149 133.522 
L 161.705083 131.76124 
L 162.044501 130.19612 
L 162.542539 128.82664 
L 163.2958 127.438335 
L 164.191241 126.28332 
L 165.05656 125.46232 
L 166.2304 124.661304 
L 167.40424 124.130031 
L 168.77372 123.788644 
L 170.1432 123.711625 
L 171.51268 123.890292 
L 172.68652 124.255581 
L 173.86036 124.8406 
L 175.0342 125.691759 
L 176.014991 126.6746 
L 176.88346 127.84844 
L 177.62236 129.21792 
L 178.205527 130.78304 
L 178.606682 132.5438 
L 178.800549 134.5002 
L 178.769714 136.65224 
L 178.473925 139.3912 
L 178.132482 142.52144 
L 178.194268 143.69528 
L 178.450569 144.67348 
L 178.947 145.558743 
L 179.579848 146.2386 
L 180.51212 146.89885 
L 181.68596 147.460649 
L 183.25108 147.952342 
L 185.01184 148.282393 
L 187.16388 148.457777 
L 189.51156 148.423561 
L 192.05488 148.161526 
L 194.79384 147.645701 
L 197.5328 146.905049 
L 200.4674 145.87444 
L 203.402 144.606929 
L 206.53224 143.002142 
L 209.66248 141.146772 
L 213.150974 138.80428 
L 216.90116 136.009081 
L 222.184257 131.76124 
L 228.329069 126.87024 
L 231.619842 124.52256 
L 234.50876 122.708151 
L 237.44336 121.126032 
L 240.37796 119.801335 
L 243.5082 118.643631 
L 246.83408 117.655781 
L 250.55124 116.782594 
L 255.05096 115.959494 
L 260.92016 115.127955 
L 266.985 114.424124 
L 266.985 114.424124 
" clip-path="url(#pec47ea3e61)" style="fill: none; stroke: #21918c; stroke-width: 1.4"/>
   </g>
   <g id="PathCollection_7">
    <path d="M 71.345 104.205467 
L 81.32264 103.454261 
L 87.38748 103.211451 
L 91.8872 103.241799 
L 95.60436 103.479593 
L 98.7346 103.888916 
L 101.6692 104.500652 
L 104.21252 105.253529 
L 106.5602 106.167874 
L 108.90788 107.322653 
L 111.25556 108.737496 
L 112.150275 109.34618 
L 112.150275 109.34618 
" clip-path="url(#pec47ea3e61)" style="fill: none; stroke: #28ae80; stroke-width: 1.4"/>
    <path d="M 126.410761 121.123998 
L 128.47188 122.423183 
L 130.42828 123.407977 
L 132.18904 124.058901 
L 133.9498 124.460812 
L 135.51492 124.58789 
L 137.08004 124.479457 
L 138.64516 124.120659 
L 140.21028 123.505605 
L 141.899933 122.56616 
L 143.579593 121.39232 
L 146.07948 119.359292 
L 151.36176 114.988757 
L 153.927901 113.17544 
L 156.4484 111.668345 
L 158.79608 110.512085 
L 161.14376 109.587625 
L 163.54858 108.87136 
L 166.03476 108.365898 
L 168.57808 108.087632 
L 171.1214 108.044131 
L 173.66472 108.231051 
L 176.20804 108.64566 
L 178.75136 109.285602 
L 181.29468 110.146617 
L 184.03364 111.308904 
L 187.16388 112.89467 
L 195.5764 117.34857 
L 197.33716 117.945937 
L 198.90228 118.270347 
L 200.4674 118.371252 
L 202.03252 118.231533 
L 203.59764 117.842868 
L 205.16276 117.202978 
L 206.740023 116.30568 
L 208.351633 115.13184 
L 210.109467 113.56672 
L 212.01016 111.565471 
L 214.247192 108.87136 
L 222.08755 99.08936 
L 224.13984 97.075103 
L 226.189402 95.3722 
L 228.24828 93.938688 
L 230.59596 92.589307 
L 233.13928 91.403349 
L 235.87824 90.375468 
L 239.00848 89.439239 
L 242.72564 88.56639 
L 247.244593 87.74224 
L 253.09456 86.911057 
L 261.89836 85.908529 
L 266.985 85.388856 
L 266.985 85.388856 
" clip-path="url(#pec47ea3e61)" style="fill: none; stroke: #28ae80; stroke-width: 1.4"/>
   </g>
   <g id="PathCollection_8">
    <path d="M 71.345 75.174225 
L 89.9308 73.531737 
L 98.93024 72.952279 
L 105.38636 72.754343 
L 110.473 72.812613 
L 114.77708 73.078749 
L 117.440641 73.378038 
L 117.440641 73.378038 
" clip-path="url(#pec47ea3e61)" style="fill: none; stroke: #5ec962; stroke-width: 1.4"/>
    <path d="M 134.032636 80.655921 
L 135.51492 82.344301 
L 137.27568 84.706307 
L 140.50602 89.11172 
L 141.791605 90.4812 
L 143.211635 91.65504 
L 144.51436 92.453627 
L 146.07948 93.125318 
L 147.6446 93.55291 
L 149.40536 93.816772 
L 151.5574 93.917995 
L 154.492 93.81126 
L 158.99172 93.387451 
L 170.1432 92.270877 
L 178.693092 91.4594 
L 181.49032 90.961809 
L 183.64236 90.356218 
L 185.238832 89.69864 
L 186.614327 88.91608 
L 187.94644 87.88192 
L 189.12028 86.650329 
L 190.170586 85.19892 
L 191.169661 83.43816 
L 192.448157 80.6992 
L 194.38242 76.59076 
L 195.5764 74.579763 
L 196.83206 72.8736 
L 198.31536 71.250999 
L 199.88048 69.860076 
L 201.642096 68.56952 
L 203.79328 67.272677 
L 206.14096 66.106778 
L 208.87992 64.983636 
L 212.2058 63.868605 
L 216.1186 62.808611 
L 220.61832 61.82836 
L 226.09624 60.872157 
L 232.94364 59.911945 
L 242.53 58.808051 
L 260.1376 57.044725 
L 266.985 56.383536 
L 266.985 56.383536 
" clip-path="url(#pec47ea3e61)" style="fill: none; stroke: #5ec962; stroke-width: 1.4"/>
   </g>
   <g id="PathCollection_9">
    <path d="M 71.345 46.180066 
L 115.120304 42.056045 
L 115.120304 42.056045 
" clip-path="url(#pec47ea3e61)" style="fill: none; stroke: #addc30; stroke-width: 1.4"/>
    <path d="M 133.590248 40.453525 
L 162.3176 37.920286 
L 180.51212 36.040287 
L 217.0968 32.219197 
L 264.0504 27.679935 
L 266.985 27.398195 
L 266.985 27.398195 
" clip-path="url(#pec47ea3e61)" style="fill: none; stroke: #addc30; stroke-width: 1.4"/>
   </g>
   <g id="PathCollection_10"/>
   <g id="patch_3">
    <path d="M 71.345 221.56 
L 71.345 25.92 
" style="fill: none; stroke: #000000; stroke-width: 0.8; stroke-linejoin: miter; stroke-linecap: square"/>
   </g>
   <g id="patch_4">
    <path d="M 266.985 221.56 
L 266.985 25.92 
" style="fill: none; stroke: #000000; stroke-width: 0.8; stroke-linejoin: miter; stroke-linecap: square"/>
   </g>
   <g id="patch_5">
    <path d="M 71.345 221.56 
L 266.985 221.56 
" style="fill: none; stroke: #000000; stroke-width: 0.8; stroke-linejoin: miter; stroke-linecap: square"/>
   </g>
   <g id="patch_6">
    <path d="M 71.345 25.92 
L 266.985 25.92 
" style="fill: none; stroke: #000000; stroke-width: 0.8; stroke-linejoin: miter; stroke-linecap: square"/>
   </g>
   <g id="patch_7">
    <path d="M 176.28449 210.426905 
Q 177.389647 210.320877 177.38188 210.321622 
" style="fill: none; stroke: #472c7a; stroke-linecap: round"/>
    <path d="M 168.773596 207.530964 
L 176.28449 210.426905 
L 169.461201 214.698056 
" style="fill: none; stroke: #472c7a; stroke-linecap: round"/>
   </g>
   <g id="patch_8">
    <path d="M 174.139421 187.294141 
Q 175.241097 187.188539 175.22984 187.189618 
" style="fill: none; stroke: #3b528b; stroke-linecap: round"/>
    <path d="M 166.628768 184.397577 
L 174.139421 187.294141 
L 167.315778 191.564726 
" style="fill: none; stroke: #3b528b; stroke-linecap: round"/>
   </g>
   <g id="patch_9">
    <path d="M 172.579136 170.960389 
Q 173.678399 170.855113 173.66472 170.856423 
" style="fill: none; stroke: #2c728e; stroke-linecap: round"/>
    <path d="M 165.06873 168.063182 
L 172.579136 170.960389 
L 165.755128 175.23039 
" style="fill: none; stroke: #2c728e; stroke-linecap: round"/>
   </g>
   <g id="patch_10">
    <path d="M 232.978722 123.624475 
Q 233.929138 123.051995 233.92184 123.056391 
" style="fill: none; stroke: #21918c; stroke-linecap: round"/>
    <path d="M 224.953664 124.255701 
L 232.978722 123.624475 
L 228.668668 130.423257 
" style="fill: none; stroke: #21918c; stroke-linecap: round"/>
   </g>
   <g id="patch_11">
    <path d="M 191.866781 115.54613 
Q 192.846567 116.0629 192.83744 116.058086 
" style="fill: none; stroke: #28ae80; stroke-linecap: round"/>
    <path d="M 187.177767 109.002954 
L 191.866781 115.54613 
L 183.818832 115.371435 
" style="fill: none; stroke: #28ae80; stroke-linecap: round"/>
   </g>
   <g id="patch_12">
    <path d="M 168.263079 92.429401 
Q 169.368876 92.335586 169.36064 92.336285 
" style="fill: none; stroke: #5ec962; stroke-linecap: round"/>
    <path d="M 160.784523 89.450947 
L 168.263079 92.429401 
L 161.393182 96.625174 
" style="fill: none; stroke: #5ec962; stroke-linecap: round"/>
   </g>
   <g id="patch_13">
    <path d="M 165.914304 37.566096 
Q 167.019827 37.454596 167.01296 37.455289 
" style="fill: none; stroke: #addc30; stroke-linecap: round"/>
    <path d="M 158.389394 34.706773 
L 165.914304 37.566096 
L 159.111899 41.87043 
" style="fill: none; stroke: #addc30; stroke-linecap: round"/>
   </g>
   <g id="text_9">
    <g clip-path="url(#pec47ea3e61)">
     <!-- 0.0 -->
     <g style="fill: #21918c" transform="translate(111.354888 140.792318)rotate(-332.26268)scale(0.1 -0.1)">
      <defs>
       <path id="ArialMT-2e" d="M 581 0 
L 581 641 
L 1222 641 
L 1222 0 
L 581 0 
z
" transform="scale(0.015625)"/>
      </defs>
      <use xlink:href="#ArialMT-30"/>
      <use xlink:href="#ArialMT-2e" x="55.615234"/>
      <use xlink:href="#ArialMT-30" x="83.398438"/>
     </g>
    </g>
   </g>
   <g id="text_10">
    <g clip-path="url(#pec47ea3e61)">
     <!-- 0.4 -->
     <g style="fill: #28ae80" transform="translate(112.322295 112.667159)rotate(-319.293204)scale(0.1 -0.1)">
      <defs>
       <path id="ArialMT-34" d="M 2069 0 
L 2069 1097 
L 81 1097 
L 81 1613 
L 2172 4581 
L 2631 4581 
L 2631 1613 
L 3250 1613 
L 3250 1097 
L 2631 1097 
L 2631 0 
L 2069 0 
z
M 2069 1613 
L 2069 3678 
L 634 1613 
L 2069 1613 
z
" transform="scale(0.015625)"/>
      </defs>
      <use xlink:href="#ArialMT-30"/>
      <use xlink:href="#ArialMT-2e" x="55.615234"/>
      <use xlink:href="#ArialMT-34" x="83.398438"/>
     </g>
    </g>
   </g>
   <g id="text_11">
    <g clip-path="url(#pec47ea3e61)">
     <!-- −1.2 -->
     <g style="fill: #472c7a" transform="translate(110.103885 218.95165)rotate(-5.290358)scale(0.1 -0.1)">
      <defs>
       <path id="ArialMT-31" d="M 2384 0 
L 1822 0 
L 1822 3584 
Q 1619 3391 1289 3197 
Q 959 3003 697 2906 
L 697 3450 
Q 1169 3672 1522 3987 
Q 1875 4303 2022 4600 
L 2384 4600 
L 2384 0 
z
" transform="scale(0.015625)"/>
      </defs>
      <use xlink:href="#ArialMT-2212"/>
      <use xlink:href="#ArialMT-31" x="58.398438"/>
      <use xlink:href="#ArialMT-2e" x="114.013672"/>
      <use xlink:href="#ArialMT-32" x="141.796875"/>
     </g>
    </g>
   </g>
   <g id="text_12">
    <g clip-path="url(#pec47ea3e61)">
     <!-- −0.8 -->
     <g style="fill: #3b528b" transform="translate(110.403317 190.169292)rotate(-0.929629)scale(0.1 -0.1)">
      <defs>
       <path id="ArialMT-38" d="M 1131 2484 
Q 781 2613 612 2850 
Q 444 3088 444 3419 
Q 444 3919 803 4259 
Q 1163 4600 1759 4600 
Q 2359 4600 2725 4251 
Q 3091 3903 3091 3403 
Q 3091 3084 2923 2848 
Q 2756 2613 2416 2484 
Q 2838 2347 3058 2040 
Q 3278 1734 3278 1309 
Q 3278 722 2862 322 
Q 2447 -78 1769 -78 
Q 1091 -78 675 323 
Q 259 725 259 1325 
Q 259 1772 486 2073 
Q 713 2375 1131 2484 
z
M 1019 3438 
Q 1019 3113 1228 2906 
Q 1438 2700 1772 2700 
Q 2097 2700 2305 2904 
Q 2513 3109 2513 3406 
Q 2513 3716 2298 3927 
Q 2084 4138 1766 4138 
Q 1444 4138 1231 3931 
Q 1019 3725 1019 3438 
z
M 838 1322 
Q 838 1081 952 856 
Q 1066 631 1291 507 
Q 1516 384 1775 384 
Q 2178 384 2440 643 
Q 2703 903 2703 1303 
Q 2703 1709 2433 1975 
Q 2163 2241 1756 2241 
Q 1359 2241 1098 1978 
Q 838 1716 838 1322 
z
" transform="scale(0.015625)"/>
      </defs>
      <use xlink:href="#ArialMT-2212"/>
      <use xlink:href="#ArialMT-30" x="58.398438"/>
      <use xlink:href="#ArialMT-2e" x="114.013672"/>
      <use xlink:href="#ArialMT-38" x="141.796875"/>
     </g>
    </g>
   </g>
   <g id="text_13">
    <g clip-path="url(#pec47ea3e61)">
     <!-- −0.4 -->
     <g style="fill: #2c728e" transform="translate(108.411984 163.715775)rotate(-347.23091)scale(0.1 -0.1)">
      <use xlink:href="#ArialMT-2212"/>
      <use xlink:href="#ArialMT-30" x="58.398438"/>
      <use xlink:href="#ArialMT-2e" x="114.013672"/>
      <use xlink:href="#ArialMT-34" x="141.796875"/>
     </g>
    </g>
   </g>
   <g id="text_14">
    <g clip-path="url(#pec47ea3e61)">
     <!-- 0.8 -->
     <g style="fill: #5ec962" transform="translate(118.971381 75.312417)rotate(-337.444946)scale(0.1 -0.1)">
      <use xlink:href="#ArialMT-30"/>
      <use xlink:href="#ArialMT-2e" x="55.615234"/>
      <use xlink:href="#ArialMT-38" x="83.398438"/>
     </g>
    </g>
   </g>
   <g id="text_15">
    <g clip-path="url(#pec47ea3e61)">
     <!-- 1.2 -->
     <g style="fill: #addc30" transform="translate(117.65156 44.413414)rotate(-4.9218)scale(0.1 -0.1)">
      <use xlink:href="#ArialMT-31"/>
      <use xlink:href="#ArialMT-2e" x="55.615234"/>
      <use xlink:href="#ArialMT-32" x="83.398438"/>
     </g>
    </g>
   </g>
  </g>
 </g>
 <defs>
  <clipPath id="pec47ea3e61">
   <rect x="71.345" y="25.92" width="195.64" height="195.64"/>
  </clipPath>
 </defs>
</svg>
